<?xml version="1.0" encoding="UTF-8"?>
<svg version="1.1" viewBox="0 0 1600 1496" xmlns="http://www.w3.org/2000/svg">
<path transform="translate(0)" d="m0 0h1600v1496h-1600v-1496z" fill="#000002"/>
<path transform="translate(661,464)" d="m0 0c1.3 0.0193 2.59 0.0387 3.93 0.0586 4.05 0.0618 8.09 0.155 12.1 0.254 1.26 0.0223 2.53 0.0446 3.83 0.0676 1.16 0.0357 2.32 0.0714 3.52 0.108 1.55 0.0393 1.55 0.0393 3.13 0.0793 0.812 0.143 1.62 0.285 2.46 0.432 2.24 3.36 2.25 4.47 2.24 8.4 0.00308 1.1 0.00615 2.21 0.00932 3.35-0.0108 1.79-0.0108 1.79-0.0218 3.62-4.58e-4 1.23-9.16e-4 2.45-0.00139 3.72-0.00302 2.6-0.0109 5.19-0.0233 7.79-0.0182 3.97-0.0205 7.95-0.0203 11.9-0.00492 2.52-0.0107 5.04-0.0176 7.57-0.00111 1.19-0.00223 2.38-0.00337 3.61-0.00638 1.11-0.0128 2.22-0.0193 3.37-0.00381 0.975-0.00762 1.95-0.0116 2.95-0.132 2.66-0.54 5.11-1.13 7.71-0.936 0.00809-1.87 0.0162-2.84 0.0245-8.87 0.0779-17.7 0.166-26.6 0.263-4.56 0.0497-9.12 0.096-13.7 0.134-4.41 0.0372-8.82 0.0836-13.2 0.136-1.67 0.0184-3.34 0.0335-5.02 0.0453-18.4-0.0295-18.4-0.0295-35.7 5.49-1.95 0.925-3.8 1.45-5.9 1.9v2l-1.88 0.75c-2.53 1.49-2.93 2.63-4.12 5.25-0.472 0.463-0.944 0.926-1.43 1.4-1.64 1.66-2.58 3.15-3.63 5.22-0.321 0.611-0.642 1.22-0.973 1.85-4.8 12.5-5.27 30.1 0.0352 42.5 2 3.37 4.3 6.17 7 9 0.897 0.957 0.897 0.957 1.81 1.93 12.3 11.9 28.1 11.2 44 11.2 1.7-0.00192 3.4-0.00338 5.1-0.00443 3.65-0.00315 7.3-0.0094 10.9-0.0181 5.79-0.0136 11.6-0.0194 17.4-0.0241 13.4-0.012 26.7-0.034 40.1-0.0562 12.2-0.0203 24.4-0.0383 36.6-0.0482 4.8-0.00413 9.61-0.0104 14.4-0.0217 54-0.126 54-0.126 69.8 3.39 1 0.2 2 0.401 3.03 0.607 24 5.04 44.4 17.2 58.9 37.2 17.8 28 20 66.1 12.9 97.9-2.09 8.43-5.17 16.2-9 24-0.468 0.984-0.936 1.97-1.42 2.98-11 21.1-31 35.3-53.3 42.6-16.5 5.12-33 7.41-50.3 6.43-1.77-1.77-1.23-4.38-1.32-6.79-0.0419-1.17-0.0838-2.34-0.127-3.54-0.0393-1.23-0.0786-2.46-0.119-3.73-0.0432-1.24-0.0864-2.47-0.131-3.74-0.106-3.06-0.208-6.13-0.307-9.19h1c0.027-1.79 0.0464-3.58 0.0625-5.38 0.0174-1.5 0.0174-1.5 0.0352-3.02 0.0824-2.59 0.0824-2.59-1.1-4.6-0.096-1.64-0.131-3.29-0.133-4.94-0.00129-0.977-0.00258-1.95-0.00391-2.96 0.00387-1.02 0.00773-2.05 0.0117-3.1-0.00387-1.02-0.00773-2.05-0.0117-3.1 0.00193-1.47 0.00193-1.47 0.00391-2.96 0.00113-0.898 0.00226-1.8 0.00342-2.72 0.129-2.21 0.129-2.21 1.13-4.21 2.64-0.879 4.49-1.19 7.21-1.36 18-1.32 29.7-5.21 42-19.2 1.71-2.38 2.38-3.86 2.89-6.7l0.875-3.75 2-1c4.1-13.1 1.42-29.7-4.32-41.8-4.68-8.56-11.5-14.8-20.7-18.2-11.1-3.21-21.7-3.43-33.2-3.4-1.89-0.00575-3.78-0.0128-5.68-0.0211-4.05-0.015-8.09-0.0209-12.1-0.0195-6.41 0.00205-12.8-0.0176-19.2-0.0402-12.5-0.0408-24.9-0.0595-37.4-0.0762-15.9-0.0224-31.7-0.0561-47.6-0.107-6.36-0.0198-12.7-0.0295-19.1-0.031-3.97-0.00277-7.94-0.0136-11.9-0.0265-1.83-0.00425-3.66-0.00516-5.48-0.00233-9.98 0.0137-19.5-0.333-29.4-2.28-0.867-0.17-1.73-0.34-2.63-0.516-13.7-2.79-26.8-6.36-38.4-14.5-0.868-0.59-1.74-1.18-2.63-1.79-12.8-9.14-24.6-20.4-32.4-34.2-0.465-0.831-0.931-1.66-1.41-2.52-7.6-15.1-9.77-32-9.78-48.7-0.0122-1.15-0.0245-2.3-0.0371-3.49-0.0269-15.9 3.18-31.9 10.2-46.3h2c0.107-0.721 0.214-1.44 0.324-2.18 0.735-3.06 1.85-5.2 3.49-7.88 0.501-0.837 1-1.67 1.52-2.54 1.69-2.44 3.53-4.34 5.67-6.4 1.07-1.26 2.13-2.53 3.19-3.81 4.33-5 9.44-10.1 15.8-12.2l1-2c3.22-1.88 6.63-3.41 10-5 0.694-0.343 1.39-0.686 2.1-1.04 17.2-8.19 35.2-10.2 54-11.1 1.25-0.063 1.25-0.063 2.53-0.127 14.8-0.739 29.5-1.04 44.3-0.748z" fill="#00EAFC"/>
<path transform="translate(706,465)" d="m0 0c35.2-0.0688 70.5-0.122 106-0.153 4.17-0.00375 8.34-0.00763 12.5-0.0116 0.83-7.87e-4 1.66-0.00157 2.51-0.00238 13.4-0.013 26.8-0.0367 40.2-0.0643 13.8-0.0281 27.5-0.0447 41.3-0.0508 8.49-0.0041 17-0.017 25.5-0.0415 5.83-0.016 11.7-0.0206 17.5-0.0168 3.36 0.00191 6.71-0.00253 10.1-0.0171 20.6-0.0853 39.1 1.81 58.7 8.36 1.14 0.38 2.28 0.761 3.46 1.15 15.7 5.64 29.9 14.9 41.5 26.8l1 3c0.99 0.33 1.98 0.66 3 1 1.7 2.14 3.27 4.25 4.81 6.5 0.666 0.959 0.666 0.959 1.35 1.94 0.885 1.28 1.77 2.55 2.65 3.84 0.98 1.42 1.99 2.81 3.01 4.2 4.34 6.04 6.75 12.5 9.19 19.5 0.434 1.18 0.869 2.36 1.32 3.57 13.3 37.4 10.9 82.1-5.53 118-1.2 2.48-2.47 4.91-3.79 7.34-0.416 0.786-0.833 1.57-1.26 2.38-5.04 8.98-12.1 17.7-19.7 24.6h-2c-0.183 0.552-0.366 1.1-0.555 1.67-2.16 3.48-5.21 5.32-8.57 7.58-0.713 0.482-1.43 0.965-2.16 1.46-15.1 10-32.1 18.2-50.3 19.9-3.43 0.331-3.43 0.331-6.73 1.41-14.9 4.11-32.3 2.13-47.6 2.07-2.63-0.00502-5.26-0.00959-7.89-0.0137-6.39-0.0109-12.8-0.0276-19.2-0.0488-1.2-5.01-2.23-9.84-2.49-15-0.0631-1.06-0.126-2.13-0.191-3.22-0.0632-1.1-0.126-2.2-0.192-3.34-0.912-13.6-3.68-25.5-8.12-38.4v-2c3.41-0.778 6.51-1.1 10-1v2h39v-2c1.26-0.0595 1.26-0.0595 2.55-0.12 3.19-0.158 6.37-0.332 9.56-0.515 1.37-0.0755 2.73-0.145 4.1-0.209 15.4-0.726 30.9-4.06 42.4-15 1.38-1.14 1.38-1.14 3.38-1.14 0.248-0.578 0.495-1.16 0.75-1.75 1.44-2.59 3.15-4.15 5.25-6.25 4.29-4.83 6.65-8.75 7.48-15.2 0.171-0.589 0.343-1.18 0.52-1.79 0.99-0.33 1.98-0.66 3-1l0.438-3.62c0.283-2.34 0.614-4.63 1.09-6.94 0.683-4.92 0.661-9.79 0.664-14.7 0.0122-0.995 0.0245-1.99 0.0371-3.01 0.0107-5.44-0.358-10.4-1.72-15.7-0.536-2.11-0.901-4.21-1.25-6.36-1.85-8.3-6.8-15.5-12.1-22-1.1-1.66-1.1-1.66-1.1-4.66l-1.62-0.688c-2.38-1.31-2.38-1.31-5-3.62-3.99-3.43-8.62-5.52-13.4-7.69-1.06-0.486-2.13-0.972-3.22-1.47-14.8-6.3-32.3-5.09-48.1-5.22-2.14-0.019-4.28-0.0434-6.42-0.0694-33.1-0.401-66.2-0.17-99.4 0.139-9.51 0.0882-19 0.163-28.5 0.24-14.8 0.119-29.6 0.254-44.4 0.387v75l-30.9 0.125c-3.22 0.0182-6.44 0.0364-9.75 0.0552-2.54 0.00584-5.08 0.0109-7.61 0.0151-0.662 0.00523-1.32 0.0105-2 0.0158-1.94 0.0146-3.89 0.0155-5.83 0.0159-1.1 0.00444-2.19 0.00888-3.32 0.0135-2.59-0.241-2.59-0.241-4.59-2.24-0.249-2.36-0.249-2.36-0.247-5.39-0.00419-1.14-0.00839-2.29-0.0127-3.47 0.00562-1.26 0.0112-2.52 0.017-3.82-0.00107-1.34-0.00301-2.67-0.00575-4.01-0.00486-3.64 0.00282-7.27 0.013-10.9 0.00877-3.8 0.00702-7.6 0.00664-11.4 9.37e-4 -6.38 0.00963-12.8 0.0233-19.1 0.0157-7.39 0.021-14.8 0.0203-22.2-6.1e-4 -7.1 0.00449-14.2 0.0128-21.3 0.00354-3.02 0.00536-6.05 0.00589-9.07 1e-3 -3.56 0.00709-7.12 0.0172-10.7 0.00433-1.93 0.00375-3.87 0.00306-5.8 0.00426-1.14 0.00853-2.29 0.0129-3.47 0.00168-0.998 0.00335-2 0.00508-3.03 0.129-2.36 0.129-2.36 1.13-4.36z" fill="#1C0AFB"/>
<path transform="translate(744 618)" d="m0 0c2.86-0.00161 5.72-0.00516 8.58-0.00919 55-0.0682 55-0.0682 70.9 3.45 1 0.2 2 0.401 3.03 0.607 24 5.04 44.4 17.2 58.9 37.2 17.8 28 20 66.1 12.9 97.9-2.09 8.43-5.17 16.2-9 24-0.702 1.48-0.702 1.48-1.42 2.98-11 21.1-31 35.3-53.3 42.6-16.5 5.12-33 7.41-50.3 6.43-1.77-1.77-1.23-4.38-1.32-6.79-0.0628-1.75-0.0628-1.75-0.127-3.54-0.0393-1.23-0.0786-2.46-0.119-3.73-0.0432-1.24-0.0864-2.47-0.131-3.74-0.106-3.06-0.208-6.13-0.307-9.19h1c0.027-1.79 0.0464-3.58 0.0625-5.38 0.0174-1.5 0.0174-1.5 0.0352-3.02 0.0824-2.59 0.0824-2.59-1.1-4.6-0.096-1.64-0.131-3.29-0.133-4.94-0.00129-0.977-0.00258-1.95-0.00391-2.96 0.00387-1.02 0.00773-2.05 0.0117-3.1-0.00387-1.02-0.00773-2.05-0.0117-3.1 0.00129-0.977 0.00258-1.95 0.00391-2.96 0.00113-0.898 0.00226-1.8 0.00342-2.72 0.129-2.21 0.129-2.21 1.13-4.21 2.64-0.879 4.49-1.19 7.21-1.36 18-1.32 29.7-5.21 42-19.2 1.71-2.38 2.38-3.86 2.89-6.7l0.875-3.75 2-1c4.1-13.1 1.42-29.7-4.32-41.8-4.67-8.54-11.5-14.9-20.7-18.2-9.12-2.45-17.8-3.44-27.2-3.4-1.24-0.00698-2.48-0.014-3.75-0.0211-2.66-0.013-5.32-0.0209-7.97-0.0195-4.2 0.00206-8.4-0.0177-12.6-0.0402-8.14-0.0407-16.3-0.0595-24.4-0.0762-10.4-0.0225-20.8-0.0558-31.2-0.107-4.18-0.0199-8.36-0.0295-12.5-0.031-3.2-0.00339-6.39-0.0193-9.59-0.033-1.16 0.00255-2.32 0.00511-3.51 0.00774-1.05-0.00683-2.1-0.0137-3.19-0.0207-0.917-0.00163-1.83-0.00327-2.78-0.00495-2.19-0.253-2.19-0.253-4.19-2.25v-3l-1.88-1.81c-4.15-4.27-4.22-8.6-4.19-14.3 0.0296-1.01 0.0593-2.03 0.0898-3.07-0.0244-2.5-0.425-4.41-1.03-6.8l1-2c0.266-5.72 0.229-11.2-3-16l1-1-8-1 1-3c29.6-0.92 59.1-1.11 88.7-1.12z" fill="#1C0AFB"/>
<path transform="translate(706,465)" d="m0 0c24.3-0.0468 48.7-0.082 73-0.104 11.3-0.0103 22.6-0.0244 33.9-0.0473 9.85-0.02 19.7-0.0328 29.6-0.0373 5.22-0.0026 10.4-0.00871 15.6-0.0233 4.91-0.0136 9.83-0.0178 14.7-0.0148 1.8-5.48e-4 3.6-0.0045 5.4-0.0122 22.5-0.0915 22.5-0.0915 29.7 4.24 2 3 2 3 1.69 5.06-0.688 1.94-0.688 1.94-1.69 3.94 0.0912 1.75 0.248 3.5 0.438 5.25 0.573 5.99 0.606 11.9 0.5 17.9-0.141 2.79-0.141 2.79 1.06 4.84l-4 3c1.19 3.55 1.19 3.55 3.55 6.35 1.98 2.26 1.81 3.75 1.76 6.71-0.00387 0.878-0.00773 1.76-0.0117 2.66-0.301 2.28-0.301 2.28-2.3 4.28-2.43 0.262-2.43 0.262-5.56 0.278-1.77 0.0167-1.77 0.0167-3.58 0.0338-1.3 0.00216-2.6 0.00432-3.95 0.00655-1.38 0.00929-2.76 0.0195-4.14 0.0304-3.75 0.0274-7.5 0.0425-11.3 0.0554-3.92 0.0156-7.84 0.0424-11.8 0.068-7.42 0.0468-14.8 0.0836-22.3 0.117-10 0.0453-20.1 0.106-30.1 0.166-15.8 0.0942-31.6 0.168-47.4 0.244v75l-30.9 0.125c-3.22 0.0182-6.44 0.0364-9.75 0.0552-2.54 0.00584-5.08 0.0109-7.61 0.0151-0.662 0.00523-1.32 0.0105-2 0.0158-1.94 0.0146-3.89 0.0155-5.83 0.0159-1.1 0.00444-2.19 0.00888-3.32 0.0135-2.59-0.241-2.59-0.241-4.59-2.24-0.249-2.36-0.249-2.36-0.247-5.39-0.00419-1.14-0.00839-2.29-0.0127-3.47 0.00562-1.26 0.0112-2.52 0.017-3.82-0.00107-1.34-0.00301-2.67-0.00575-4.01-0.00486-3.64 0.00282-7.27 0.013-10.9 0.00877-3.8 0.00702-7.6 0.00664-11.4 9.37e-4 -6.38 0.00963-12.8 0.0233-19.1 0.0157-7.39 0.021-14.8 0.0203-22.2-6.1e-4 -7.1 0.00449-14.2 0.0128-21.3 0.00354-3.02 0.00536-6.05 0.00589-9.07 1e-3 -3.56 0.00709-7.12 0.0172-10.7 0.00433-1.93 0.00375-3.87 0.00306-5.8 0.00426-1.14 0.00853-2.29 0.0129-3.47 0.00168-0.998 0.00335-2 0.00508-3.03 0.129-2.36 0.129-2.36 1.13-4.36z" fill="#00EAFC"/>
<path transform="translate(751,686)" d="m0 0v2c1.18-0.108 1.18-0.108 2.39-0.219 6.97-0.594 13.8-0.857 20.8-0.719 2.5-0.0563 4.38-0.443 6.78-1.06 11.4-0.847 25.4 0.0206 35 7 6.71 6.01 10.4 14.1 11 23 0.203 5.25-0.126 9.76-1 15l-55 1c-1.33 3.98-1.08 7.76-1.03 11.9 0.0126 1.79 0.025 3.59 0.0371 5.38 0.0248 2.83 0.0528 5.66 0.0862 8.49 0.0302 2.73 0.048 5.46 0.0642 8.19 0.0202 1.27 0.0202 1.27 0.0408 2.56 0.00338 0.791 0.00676 1.58 0.0102 2.4 0.00746 0.693 0.0149 1.39 0.0226 2.1-0.234 1.98-0.234 1.98-1.27 4.01-1.31 2.68-0.714 4.78-0.263 7.66 0.566 4.37 0.421 8.76 0.397 13.2-0.00101 0.896-0.00201 1.79-0.00305 2.72-0.00519 3.31-0.0192 6.63-0.0321 9.94l-0.0625 22.5h-63c-1.33-2.66-1.13-4.68-1.13-7.66-0.00426-1.2-0.00853-2.41-0.0129-3.65 3.5e-4 -1.34 8.11e-4 -2.68 0.00137-4.02-0.00299-1.41-0.00639-2.81-0.0102-4.22-0.00885-3.82-0.0112-7.65-0.0118-11.5-9.48e-4 -3.19-0.00463-6.38-0.00817-9.57-0.00815-7.52-0.0106-15-0.00987-22.6 6.01e-4 -7.77-0.00996-15.5-0.0257-23.3-0.0131-6.66-0.0184-13.3-0.0178-20 2.56e-4 -3.98-0.00263-7.96-0.0132-11.9-0.00965-3.74-0.00978-7.49-0.00248-11.2 0.00105-1.38-0.00134-2.75-0.00736-4.13-0.00767-1.87-0.0019-3.75 0.00463-5.62-5.45e-4 -1.05-0.00109-2.1-0.00165-3.18 0.249-2.47 0.249-2.47 2.25-4.47 2.73-0.211 2.73-0.211 6.19-0.16 1.26 0.011 2.51 0.0219 3.81 0.0332 1.33 0.0207 2.67 0.0422 4 0.0645 11.5 0.173 11.5 0.173 23-0.759 2.47-0.224 4.6 0.112 6.97 0.822z" fill="#02D2FD"/>
<path transform="translate(637 768)" d="m0 0c1.54-6.76e-4 3.09-0.00165 4.63-0.0029 3.19-0.00146 6.38 6.12e-4 9.57 0.00534 4.09 0.00577 8.19 0.00236 12.3-0.00357 3.17-0.0036 6.33-0.00247 9.5 1.28e-4 1.51 6.67e-4 3.02-1.52e-4 4.54-0.00248 2.09-0.00252 4.19 0.00131 6.28 0.0069 1.79 0.00119 1.79 0.00119 3.61 0.00241 2.66 0.127 2.66 0.127 3.66 1.13 1.12 8.14 1.14 16.4 1.1 24.5-0.00212 1.71-0.00212 1.71-0.00429 3.45-0.00554 3.59-0.0181 7.17-0.0309 10.8-0.00502 2.45-0.00958 4.9-0.0137 7.35-0.0109 5.97-0.0276 11.9-0.0488 17.9-23.5 0.0233-46.9 0.041-70.4 0.0518-10.9 0.00516-21.8 0.0122-32.7 0.0236-9.49 0.00995-19 0.0164-28.5 0.0186-5.03 0.00131-10.1 0.0044-15.1 0.0116-4.73 0.00676-9.45 0.00889-14.2 0.00738-1.74 2.76e-4 -3.48 0.00228-5.22 0.0061-2.36 0.00493-4.73 0.00379-7.09 0.00105-1.05 0.00437-1.05 0.00437-2.11 0.00883-4.73-0.015-4.73-0.015-5.84-1.13-1.03-5.83-1.15-11.7-1.13-17.6-9.57e-4 -0.793-0.00191-1.59-0.0029-2.4-6.76e-4 -1.67 0.00114-3.34 0.00534-5 0.00531-2.5 5.99e-5 -4.99-0.00635-7.49 6.62e-4 -1.64 0.00195-3.28 0.00391-4.92-0.00202-0.72-0.00405-1.44-0.00613-2.18 0.0337-7.81 0.612-15.6 1.14-23.4 1.11 0.00222 2.23 0.00444 3.38 0.00673 10.6 0.0204 21.2 0.0353 31.7 0.0451 5.44 0.00519 10.9 0.0122 16.3 0.0236 5.26 0.011 10.5 0.0169 15.8 0.0194 1.99 0.00183 3.99 0.0054 5.98 0.0109 9.93 0.0261 19.8-0.0755 29.7-0.743 7.69-0.503 15.4-0.507 23.1-0.495z" fill="#00EBFD"/>
<path transform="translate(810,465)" d="m0 0c10.8-0.0465 21.6-0.0819 32.3-0.104 5.01-0.0104 10-0.0245 15-0.0473 4.84-0.0218 9.67-0.0337 14.5-0.0389 1.84-0.00368 3.68-0.0109 5.52-0.0217 23.3-0.132 23.3-0.132 30.6 4.21 2 3 2 3 1.69 5.06-0.688 1.94-0.688 1.94-1.69 3.94 0.0912 1.75 0.248 3.5 0.438 5.25 0.573 5.99 0.606 11.9 0.5 17.9-0.141 2.79-0.141 2.79 1.06 4.84l-4 3c1.19 3.55 1.19 3.55 3.55 6.35 1.98 2.26 1.81 3.75 1.76 6.71-0.00387 0.878-0.00773 1.76-0.0117 2.66-0.301 2.28-0.301 2.28-2.3 4.28-2.86 0.188-5.63 0.252-8.49 0.227-0.878 2.92e-4 -1.76 5.84e-4 -2.66 8.85e-4 -2.91-0.0014-5.82-0.017-8.73-0.0326-2.01-0.00373-4.03-0.00658-6.04-0.00858-5.31-0.00765-10.6-0.0273-15.9-0.0494-5.42-0.0204-10.8-0.0296-16.2-0.0397-10.6-0.0215-21.3-0.0556-31.9-0.0977v-2c-0.99-0.33-1.98-0.66-3-1-1.69-1.44-1.69-1.44-3-3v-2l-1.94-0.688c-2.06-1.31-2.06-1.31-2.81-3.94l-0.25-2.38c-0.99-0.33-1.98-0.66-3-1-0.2-4.29 0.385-7.06 2-11v-2.38c0-2.62 0-2.62 1.06-6.25 1.26-3.33 1.26-3.33-0.0625-6.38 0.086-1.82 0.239-3.63 0.438-5.44 0.349-3.24 0.562-6.29 0.562-9.56 0.99-0.33 1.98-0.66 3-1v-2l-2-2v-2z" fill="#00B5FA"/>
<path transform="translate(637 768)" d="m0 0c1.54-6.76e-4 3.09-0.00165 4.63-0.0029 3.19-0.00146 6.38 6.12e-4 9.57 0.00534 4.09 0.00577 8.19 0.00236 12.3-0.00357 3.17-0.0036 6.33-0.00247 9.5 1.28e-4 1.51 6.67e-4 3.02-1.52e-4 4.54-0.00248 2.09-0.00252 4.19 0.00131 6.28 0.0069 1.79 0.00119 1.79 0.00119 3.61 0.00241 2.66 0.127 2.66 0.127 3.66 1.13 1.12 8.14 1.14 16.4 1.1 24.5-0.00101 1.01-0.00201 2.02-0.00305 3.06-0.00517 3.71-0.0191 7.43-0.0321 11.1l-0.0625 25.2h-92v-2l3-1c0.909-4.18 1.08-7.17 0.0352-11.3-1.45-6.85-1.29-13.6-1.22-20.6 6.45e-4 -1.29 0.00129-2.59 0.00195-3.92 0.0305-6.7 0.259-13.3 0.973-20 0.261-2.3 0.261-2.3 0.212-5.17 11.3-0.776 22.6-1.15 33.9-1.13z" fill="#1D0AFC"/>
<path transform="translate(661,464)" d="m0 0c1.32 0.0179 2.63 0.0358 3.99 0.0542 4.02 0.0611 8.05 0.157 12.1 0.258 1.26 0.0224 2.52 0.0448 3.82 0.0679 1.16 0.0356 2.33 0.0712 3.52 0.108 1.55 0.0393 1.55 0.0393 3.13 0.0793 0.812 0.143 1.62 0.285 2.46 0.432 2.24 3.36 2.25 4.47 2.24 8.4 0.00461 1.66 0.00461 1.66 0.00932 3.35-0.0108 1.79-0.0108 1.79-0.0218 3.62-4.58e-4 1.23-9.16e-4 2.45-0.00139 3.72-0.00302 2.6-0.0109 5.19-0.0233 7.79-0.0182 3.97-0.0205 7.95-0.0203 11.9-0.00492 2.52-0.0107 5.04-0.0176 7.57-0.00111 1.19-0.00223 2.38-0.00337 3.61-0.00638 1.11-0.0128 2.22-0.0193 3.37-0.00381 0.975-0.00762 1.95-0.0116 2.95-0.134 2.71-0.134 2.71-1.13 7.71h-70l-1-3c-2.02-1.4-4.13-2.54-6.29-3.72-0.849-0.634-0.849-0.634-1.71-1.28v-3c-0.99-0.33-1.98-0.66-3-1-0.982-4.05-1.08-7.84-1-12h2l-0.625-2.44c-0.382-3.63 0.246-6.1 1.16-9.59 0.771-4.9 0.511-9.82 0.306-14.8-0.154-5.84-0.154-5.84 1.68-7.95 0.49-0.414 0.981-0.829 1.49-1.26l-1.5-1.44c-1.5-1.56-1.5-1.56-1.5-2.56 16.7-0.91 33.3-1.23 50-1z" fill="#00B5FA"/>
<path transform="translate(582,606)" d="m0 0c2.42 1.08 4.24 2.2 6.29 3.91 2.76 2.12 5.26 3.44 8.46 4.78 0.964 0.416 1.93 0.833 2.92 1.26 7.28 2.3 15 2.21 22.5 2.3 1.92 0.0329 3.84 0.0661 5.76 0.0996 3 0.0477 6 0.0923 8.99 0.131 2.91 0.0395 5.83 0.091 8.74 0.144 0.902 0.00841 1.8 0.0168 2.73 0.0255 1.25 0.025 1.25 0.025 2.52 0.0504 1.1 0.0155 1.1 0.0155 2.22 0.0312 1.81 0.272 1.81 0.272 3.81 2.27 2.32 0.4 4.66 0.74 7 1l-2 3 2 2c0.449 2.9 0.449 2.9 0.688 6.38 0.0864 1.14 0.173 2.28 0.262 3.46 0.0438 2.73-0.24 4.58-0.949 7.16 0.309 2.34 0.645 4.67 1 7v7c0.292 2.01 0.612 4.01 1 6l3 1c3 5.22 3 5.22 3 8-8.51 0.0466-17 0.082-25.5 0.104-3.95 0.0104-7.91 0.0244-11.9 0.0473-3.83 0.022-7.65 0.0337-11.5 0.0389-1.45 0.00365-2.9 0.0108-4.35 0.0217-9.1 0.0657-17.8-0.505-26.8-2.21-0.905-0.139-1.81-0.278-2.74-0.421-3.28-0.84-4.23-2.94-6.26-5.58l-3.19-2c-2.81-2-2.81-2-3.69-4.75l-0.125-2.25h3v-2c-1.98-0.33-3.96-0.66-6-1 0-3 0-3 1-6l-3-2v-2l-2-1 5-1c-0.351-0.516-0.701-1.03-1.06-1.56-1.3-3.38-0.61-5.94 0.0625-9.44h3v-2c-0.99-0.33-1.98-0.66-3-1-0.224-1.73-0.428-3.46-0.625-5.19-0.116-0.963-0.232-1.93-0.352-2.92-0.0254-3.14 0.633-5.09 1.98-7.89h7l1-5z" fill="#01D2FC"/>
<path transform="translate(551,886)" d="m0 0c3.62-0.0579 7.25-0.0936 10.9-0.125 1.03-0.0168 2.07-0.0335 3.13-0.0508 0.986-0.00645 1.97-0.0129 2.99-0.0195 1.37-0.0157 1.37-0.0157 2.76-0.0317 2.25 0.227 2.25 0.227 4.25 2.23 0.517 1.9 1.03 3.8 1.47 5.72 0.892 3.83 1.98 7.62 3.03 11.4 0.319 1.16 0.319 1.16 0.645 2.34 0.918 3.31 1.87 6.57 2.97 9.82 1.17 3.59 1.49 6.97 1.88 10.7 0.99-0.33 1.98-0.66 3-1 0.898-2.32 0.898-2.32 1.44-5.19 1.35-5.97 2.97-11.8 4.7-17.7 0.749-2.7 1.32-5.38 1.87-8.13 0.667-1.67 1.33-3.33 2-5 0.352-1.66 0.688-3.33 1-5 3.62-0.0289 7.25-0.0468 10.9-0.0625 1.55-0.0126 1.55-0.0126 3.13-0.0254 0.986-0.00322 1.97-0.00645 2.99-0.00977 1.37-0.00786 1.37-0.00786 2.76-0.0159 2.25 0.114 2.25 0.114 4.25 1.11 0.0231 9.76 0.0409 19.5 0.0518 29.3 0.00523 4.53 0.0123 9.06 0.0236 13.6 0.0108 4.37 0.0168 8.74 0.0194 13.1 0.00185 1.67 0.00547 3.34 0.0109 5.01 0.00721 2.33 0.00826 4.66 0.0078 7 0.0036 0.698 0.00719 1.4 0.0109 2.11-0.0104 4.77-0.0104 4.77-1.12 5.88-3.14 0.25-6.29 0.185-9.44 0.188-1.33 0.0184-1.33 0.0184-2.68 0.0371-0.846 0.00193-1.69 0.00387-2.56 0.00586-0.779 0.00411-1.56 0.00822-2.36 0.0125-1.96-0.243-1.96-0.243-3.96-2.24-0.246-3.01-0.374-5.93-0.414-8.95-0.0194-0.885-0.0387-1.77-0.0587-2.68-0.0599-2.83-0.106-5.67-0.152-8.5-0.0382-1.92-0.0772-3.84-0.117-5.75-0.0961-4.71-0.18-9.41-0.258-14.1h-2l0.125 2.31c-0.125 2.69-0.125 2.69-2.12 5.69-0.707 2.71-1.35 5.39-1.94 8.12-1.22 5.44-2.52 10.7-4.41 16-0.681 1.94-1.24 3.89-1.78 5.87-0.875 3-0.875 3-1.88 4-2.4 0.273-2.4 0.273-5.38 0.375-0.977 0.049-1.95 0.098-2.96 0.148-2.66-0.523-2.66-0.523-4.34-2.47-1.75-4.02-3-8.09-4.2-12.3-0.257-0.879-0.514-1.76-0.778-2.66-0.529-1.81-1.05-3.62-1.58-5.43-0.722-2.49-1.46-4.98-2.2-7.46-0.44-1.48-0.88-2.96-1.32-4.44-0.198-0.665-0.397-1.33-0.601-2.02-1.34-4.55-2.51-9.13-3.65-13.7 0.00524 1.12 0.0105 2.25 0.0159 3.41 0.0183 4.22 0.0296 8.44 0.0391 12.7 0.00499 1.82 0.0118 3.63 0.0205 5.45 0.0905 19.4 0.0905 19.4-1.08 28.5h-6c-2.75-4.97-1.98-9.79-1.56-15.2 0.128-1.82 0.252-3.64 0.371-5.45 0.0599-0.801 0.12-1.6 0.181-2.43 0.0033-0.617 0.00661-1.23 0.01-1.87l-1-1c-0.101-2.83-0.14-5.63-0.133-8.46-9.57e-4 -0.86-0.00191-1.72-0.0029-2.61-6.83e-4 -1.83 0.00118-3.66 0.00534-5.49 0.00528-2.77 9.18e-5 -5.53-0.00635-8.3-0.00297-8.76 0.0271-17.4 1.14-26.1z" fill="#01D1FC"/>
<path transform="translate(443,886)" d="m0 0c6-0.0496 12-0.0858 18-0.11 2.04-0.01 4.08-0.0237 6.11-0.041 2.94-0.0244 5.87-0.0356 8.81-0.0444 0.904-0.0103 1.81-0.0206 2.74-0.0313 7.84-0.00138 14.1 1.08 20.3 6.23 4.27 5.83 5.38 10.9 5 18-1.01 3.43-2.17 5.76-5 8h-2l-0.75 1.88c-1.47 2.5-2.66 2.96-5.25 4.12 0.758 0.615 0.758 0.615 1.53 1.24 0.65 0.539 1.3 1.08 1.97 1.63 0.65 0.534 1.3 1.07 1.97 1.62 0.505 0.498 1.01 0.995 1.53 1.51v2h2c1.12 6.12 2.07 12.2 2.5 18.4 0.3 4.16 0.879 7.73 2.5 11.6-5.23 0.912-10 1.05-15.3 0.688-0.715-0.0354-1.43-0.0709-2.17-0.107-5.27-0.333-5.27-0.333-7.52-2.58-0.347-2.61-0.347-2.61-0.492-5.89-0.0986-1.78-0.0986-1.78-0.199-3.59-0.122-2.5-0.236-4.99-0.344-7.49-0.249-7.14-0.249-7.14-2.47-13.8-3.55-3.14-6.87-3.18-11.5-3.2 0.00786 1.63 0.00786 1.63 0.0159 3.29 0.018 4.01 0.0296 8.02 0.0391 12 0.00504 1.74 0.0119 3.48 0.0205 5.22 0.0121 2.49 0.0178 4.99 0.0222 7.48 0.00516 0.782 0.0103 1.56 0.0156 2.37 1.96e-4 1.87-0.0513 3.74-0.113 5.6-2.3 2.3-7.85 1.19-10.9 1.19-0.933 0.0122-1.87 0.0245-2.83 0.0371-1.34 0.0029-1.34 0.0029-2.7 0.00586-0.821 0.00411-1.64 0.00822-2.49 0.0125-2.05-0.243-2.05-0.243-4.05-2.24-0.247-3-0.247-3-0.243-6.9-0.0019-0.709-0.0038-1.42-0.00575-2.15-0.00371-2.35 7e-3 -4.7 0.0182-7.05 0.00119-1.63 0.00164-3.26 0.00139-4.89 0.00157-3.42 0.00986-6.83 0.0233-10.2 0.017-4.39 0.0208-8.77 0.0201-13.2 2.72e-4 -3.36 0.00575-6.73 0.013-10.1 0.00319-1.62 0.00515-3.23 0.00589-4.85 0.00216-2.26 0.0109-4.52 0.0216-6.77 0.00381-1.29 0.00762-2.57 0.0116-3.9 0.134-3 0.134-3 1.13-5z" fill="#00EAFC"/>
<path transform="translate(866,886)" d="m0 0c6.42-0.0763 12.8-0.129 19.3-0.165 2.18-0.0151 4.37-0.0355 6.55-0.0615 3.15-0.0365 6.29-0.0534 9.44-0.0667 0.97-0.0155 1.94-0.031 2.94-0.0469 6.69-0.00165 11.8 0.672 17 5.28 0.559 0.681 1.12 1.36 1.7 2.06 0.575 0.681 1.15 1.36 1.74 2.06 2.93 4.11 2.6 8.47 2.63 13.3 0.0206 0.755 0.0412 1.51 0.0625 2.29 0.0429 6.14-1.55 9.22-5.5 14-7.32 6.18-16.5 6.52-25.8 6.44-0.684-0.00451-1.37-0.00902-2.07-0.0137-1.66-0.0116-3.33-0.0296-4.99-0.0488 0.00786 1.4 0.00786 1.4 0.0159 2.83 0.017 3.45 0.0296 6.91 0.0391 10.4 0.00504 1.5 0.0119 2.99 0.0205 4.49 0.0121 2.15 0.0178 4.29 0.0222 6.44 0.00786 1.94 0.00786 1.94 0.0159 3.92-0.114 2.96-0.114 2.96-1.11 3.96-3.31 0.25-6.62 0.185-9.94 0.188-0.933 0.0122-1.87 0.0245-2.83 0.0371-1.34 0.0029-1.34 0.0029-2.7 0.00586-0.821 0.00411-1.64 0.00822-2.49 0.0125-2.05-0.243-2.05-0.243-4.05-2.24-0.188-2.41-0.252-4.7-0.227-7.11-2.92e-4 -0.732-5.84e-4 -1.46-8.85e-4 -2.22 0.0014-2.42 0.017-4.85 0.0326-7.27 0.00373-1.68 0.00658-3.36 0.00858-5.04 0.00764-4.42 0.0273-8.84 0.0494-13.3 0.0204-4.51 0.0296-9.02 0.0397-13.5 0.0215-8.85 0.0556-17.7 0.0977-26.6z" fill="#0B6DFC"/>
<path transform="translate(373,886)" d="m0 0c6.42-0.0763 12.8-0.129 19.3-0.165 2.18-0.0151 4.37-0.0355 6.55-0.0615 3.15-0.0365 6.29-0.0534 9.44-0.0667 0.97-0.0155 1.94-0.031 2.94-0.0469 6.67-0.00164 11.6 0.741 17 5.1 5.43 6.27 7.37 11.9 7.11 20.2-0.79 6.35-3.22 11-8.25 15-7.41 4.45-13.8 5.15-22.3 5.06l-8.69-0.0625-1 32c-4.89 0.0619-4.89 0.0619-9.88 0.125-1.03 0.0182-2.05 0.0364-3.11 0.0552-0.807 5e-3 -1.61 0.00999-2.45 0.0151-0.827 0.0105-1.65 0.0209-2.51 0.0317-2.06-0.227-2.06-0.227-4.06-2.23-0.188-2.41-0.252-4.7-0.227-7.11-2.92e-4 -0.732-5.84e-4 -1.46-8.85e-4 -2.22 0.0014-2.42 0.017-4.85 0.0326-7.27 0.00373-1.68 0.00658-3.36 0.00858-5.04 0.00764-4.42 0.0273-8.84 0.0494-13.3 0.0204-4.51 0.0296-9.02 0.0397-13.5 0.0215-8.85 0.0556-17.7 0.0977-26.6z" fill="#00EAFC"/>
<path transform="translate(961 885)" d="m0 0c1.2-0.0122 2.4-0.0245 3.63-0.0371 19-0.0312 19-0.0312 26.2 6.22 3.62 4.05 5.67 7.47 6 13 0.0503 0.776 0.101 1.55 0.152 2.35 0.27 7.14-0.956 12.5-5.9 17.9-9.31 8.58-22.5 6.89-34.2 6.75-0.0292 3.85-0.0469 7.71-0.0625 11.6-0.00838 1.09-0.0168 2.17-0.0254 3.29-0.0344 6.7-0.0344 6.7 0.654 13.4 0.143 0.919 0.286 1.84 0.434 2.79-2.3 2.3-7.85 1.19-10.9 1.19-0.933 0.0122-1.87 0.0245-2.83 0.0371-1.34 0.0029-1.34 0.0029-2.7 0.00586-0.821 0.00411-1.64 0.00822-2.49 0.0125-2.05-0.243-2.05-0.243-4.05-2.24-0.188-2.41-0.252-4.7-0.227-7.11-2.92e-4 -0.732-5.84e-4 -1.46-8.85e-4 -2.22 0.0014-2.42 0.017-4.85 0.0326-7.27 0.00373-1.68 0.00658-3.36 0.00858-5.04 0.00764-4.42 0.0273-8.84 0.0494-13.3 0.0204-4.51 0.0296-9.02 0.0397-13.5 0.0215-8.85 0.0556-17.7 0.0977-26.6 8.73-0.781 17.4-1.18 26.1-1.19z" fill="#0B6BFD"/>
<path transform="translate(558,769)" d="m0 0h44v2l2 1c-0.07 0.619-0.14 1.24-0.212 1.88-0.831 8.07-0.971 16.1-0.975 24.2-0.0184 1.95-0.0184 1.95-0.0371 3.93-0.00993 6.53 0.231 12.6 1.8 19 0.685 3.3 0.404 5.85-0.575 9.05-4.01 3.22-7.69 3.42-12.6 3.33-0.721-0.00187-1.44-0.00375-2.18-0.00568-1.52-0.0067-3.03-0.0206-4.55-0.0412-2.32-0.0313-4.65-0.041-6.97-0.0469-1.47-0.00917-2.95-0.0195-4.42-0.0312-0.696-0.00425-1.39-0.0085-2.11-0.0129-4.9-0.073-4.9-0.073-7.13-1.19-1.11-2.32-2.07-4.6-3-7-0.263-0.597-0.527-1.19-0.798-1.81-2.69-6.77-2.63-13.5-2.54-20.7 0.0237-2.09 0.0205-4.18 0.0139-6.27 0.0267-6.46 0.5-12 2.32-18.2-0.273-3.33-0.504-6.01-2-9z" fill="#00B4FA"/>
<path transform="translate(858,465)" d="m0 0c4.94-0.0499 9.89-0.0859 14.8-0.11 1.68-0.00998 3.36-0.0236 5.03-0.041 22.8-0.231 22.8-0.231 30.1 4.15 2 3 2 3 1.69 5.06-0.688 1.94-0.688 1.94-1.69 3.94 0.0912 1.75 0.248 3.5 0.438 5.25 0.573 5.99 0.606 11.9 0.5 17.9-0.141 2.79-0.141 2.79 1.06 4.84l-4 3c1.19 3.55 1.19 3.55 3.55 6.35 1.98 2.26 1.81 3.75 1.76 6.71-0.00387 0.878-0.00773 1.76-0.0117 2.66-0.301 2.28-0.301 2.28-2.3 4.28-2.87 0.175-5.64 0.231-8.51 0.195-1.26-0.00424-1.26-0.00424-2.55-0.00858-2.69-0.0112-5.38-0.0363-8.07-0.0617-1.82-0.01-3.64-0.0192-5.46-0.0273-4.47-0.0221-8.94-0.0566-13.4-0.0977-4.08-8.75-7.35-15.9-7.25-25.6-0.00773-0.75-0.0155-1.5-0.0234-2.27 0.0199-5.62 0.0199-5.62 1.28-8.02 1.23-2.58 1.22-4.44 1.19-7.28-0.00645-0.98-0.0129-1.96-0.0195-2.97-0.0168-1.02-0.0335-2.03-0.0508-3.08-0.00902-1.03-0.018-2.06-0.0273-3.12-0.0235-2.54-0.0564-5.08-0.0977-7.62-4.46-0.99-4.46-0.99-9-2l1-2z" fill="#1649FD"/>
<path transform="translate(707,686)" d="m0 0c3.26 0.0234 3.26 0.0234 7.12 0.375 1.28 0.111 2.56 0.222 3.88 0.336 0.987 0.0954 1.97 0.191 2.99 0.289l1 3h3c0.8 3.29 1.1 4.71 0 8h-2c0.126 1.14 0.126 1.14 0.254 2.3 0.102 0.994 0.204 1.99 0.309 3.01 0.104 0.986 0.209 1.97 0.316 2.99 0.121 2.7 0.121 2.7-0.879 5.7-0.095 2.14-0.13 4.29-0.125 6.44-0.00258 1.13-0.00516 2.27-0.00781 3.43 0.018 2.96 0.018 2.96 0.631 5.08 0.858 3.5 0.693 7.09 0.69 10.7 6.45e-4 0.851 0.00129 1.7 0.00195 2.58-0.0441 5.41-0.453 10.6-1.19 16-1.16 8.77-1.23 17.5-1.25 26.4-5e-3 0.697-0.00999 1.39-0.0151 2.11-0.0455 7.71 0.295 14.8 2.27 22.3v7c0.218 7.46 0.218 7.46 3.69 13.7 2.11 1.26 2.11 1.26 5.31 2.34v3h-27c-1.33-2.66-1.13-4.68-1.13-7.66-0.00426-1.2-0.00853-2.41-0.0129-3.65 3.5e-4 -1.34 8.11e-4 -2.68 0.00137-4.02-0.00299-1.41-0.00639-2.81-0.0102-4.22-0.00885-3.82-0.0112-7.65-0.0118-11.5-9.48e-4 -3.19-0.00463-6.38-0.00817-9.57-0.00815-7.52-0.0106-15-0.00987-22.6 6.01e-4 -7.77-0.00996-15.5-0.0257-23.3-0.0131-6.66-0.0184-13.3-0.0178-20 2.56e-4 -3.98-0.00263-7.96-0.0132-11.9-0.00965-3.74-0.00978-7.49-0.00248-11.2 0.00105-1.38-0.00134-2.75-0.00736-4.13-0.00767-1.87-0.0019-3.75 0.00463-5.62-5.45e-4 -1.05-0.00109-2.1-0.00165-3.18 0.249-2.47 0.249-2.47 2.25-4.47z" fill="#00EAFD"/>
<path transform="translate(781 465)" d="m0 0c1.2 0.00281 1.2 0.00281 2.42 0.00568 1.69 0.00671 3.38 0.0206 5.07 0.0412 2.57 0.031 5.13 0.041 7.7 0.0469 1.65 0.00918 3.29 0.0196 4.94 0.0312 1.14 0.00637 1.14 0.00637 2.31 0.0129 4.53 0.0599 8.86 0.454 13.3 1.19l-2 1.31-2 1.69v3h-4v2l2 1c-0.152 0.565-0.304 1.13-0.461 1.71-0.544 2.31-0.888 4.56-1.16 6.91-0.143 1.16-0.143 1.16-0.289 2.35-0.253 2.09-0.253 2.09 0.914 4.02-0.249 1.62-0.572 3.22-0.938 4.81-0.796 3.49-1.17 6.61-1.06 10.2h-2c-0.558 5.23-0.558 5.23 1.38 9.75l1.62 1.25c0.667 1.33 1.33 2.67 2 4l2 1v2l2.44 0.75 2.56 1.25c0.66 2.08 0.66 2.08 1 4-4.48 0.0495-8.97 0.0858-13.5 0.11-1.52 0.01-3.05 0.0237-4.57 0.041-2.19 0.0243-4.39 0.0356-6.58 0.0444-1.98 0.0157-1.98 0.0157-4 0.0317-3.17-0.212-4.74-0.601-7.39-2.23-1.33-0.343-2.66-0.676-4-1-1.67-0.647-3.34-1.31-5-2l1-3-5-1-1 2c-4.8-3.45-4.8-3.45-5.81-6.25l-0.188-1.75h2l-1-3c-0.0697-2.39-0.0845-4.79-0.0625-7.19 0.00902-1.27 0.018-2.54 0.0273-3.86 0.0116-0.976 0.0232-1.95 0.0352-2.96l2-1-1-3h2l-1-3 1-2c-0.99-0.33-1.98-0.66-3-1l2-2-2-3 2.25-2.19c2.76-2.72 2.76-2.72 4.94-5.62 0.598-0.722 1.2-1.44 1.81-2.19h2v-3c-2.97-0.495-2.97-0.495-6-1 3.65-3.63 7.39-3.41 12.2-3.33z" fill="#01D2FC"/>
<path transform="translate(1202,887)" d="m0 0c5.35 4.42 7.98 8.44 8.69 15.3 0.116 1.56 0.224 3.12 0.312 4.69-2.97 0.675-5.31 1.15-8.31 0.5-2.62-2.33-2.23-5.11-2.69-8.5-2-4.24-3.18-5.67-7.56-7.44-5.08-0.935-10.4-0.769-15.4 0.438-2.42 1.89-2.97 2.91-4 5.88-0.334 3.31-0.334 3.31 2.25 5.81l2.75 2.31c0.458 0.514 0.915 1.03 1.39 1.56 2 1.78 3.59 2.18 6.18 2.82 7.41 2.07 14.8 5.21 20.4 10.6v2c0.99 0.33 1.98 0.66 3 1 5.41 6 5.53 12.7 5.47 20.4-0.872 6.6-3.69 10.2-8.71 14.2-8.49 6.38-17.4 5.77-27.8 5.32-6.75-1.12-14.1-4.49-18.5-9.82-2.85-5.01-3.38-10.5-2.47-16.2 2.79-2.79 5.15-2.66 9-3l2 1c-0.0348 0.808-0.0696 1.62-0.105 2.45-0.0271 1.07-0.0541 2.14-0.082 3.24-0.0348 1.06-0.0696 2.11-0.105 3.2 0.41 4.36 2.01 6.96 5.23 9.86 4.84 2.93 10.6 2.86 16.1 2.25 3.63-1.33 3.63-1.33 6-4 1.34-3.36 1.34-3.36 1-7-2.23-4.26-2.23-4.26-6-7v-2c-0.587-0.141-1.17-0.281-1.78-0.426-11-2.84-21.8-7.92-28.2-17.6-2-4.78-2-4.78-2-7-0.058-0.638-0.116-1.28-0.176-1.93-0.385-7.04 0.93-12.4 5.18-18.1 10.1-9.17 26.8-11.6 39-5z" fill="#1C0AFB"/>
<path transform="translate(774,887)" d="m0 0c4.51 3.84 7.17 8.42 9 14 0.188 3.44 0.188 3.44 0 6-6.05 0.977-6.05 0.977-8 1-2.3-2.3-2.36-3.19-2.88-6.31-0.853-4.14-1.97-6.72-5.12-9.69-5.71-1.9-12-1.85-17.5 0.5l-2.5 1.5h-2v10l4 2 3.25 1.69c2.83 1.43 5.69 2.73 8.62 3.95 0.698 0.296 1.4 0.591 2.12 0.896 1.4 0.588 2.8 1.17 4.21 1.74 8.33 3.51 15.1 9.36 18.8 17.7 1.14 8.48 0.957 16.1-4.38 23.1-5.69 6.23-11.7 8.51-20.1 9.13-11 0.166-20.1-0.65-28.6-8.26-3.89-4.87-4.44-9.8-4.43-15.9 0.434-2.1 0.434-2.1 3.43-4.1 3.12-0.688 3.12-0.688 6-1 2.35 2.35 1.33 8.4 1.43 11.6 0.665 3.96 1.39 5.06 4.57 7.42 5.85 2.98 11.5 5.07 18 3 3.05-1.39 3.05-1.39 5-4 0.574-4.52 0.546-6.83-1.38-10.9-1.46-2.16-1.46-2.16-3.62-3.06v-2c-1.06-0.184-1.06-0.184-2.14-0.371-11-2.42-20.9-8.26-28-17.1-3.55-6.36-2.73-14.6-1.88-21.6 1.24-3.48 2.15-4.46 5-7 3.31-1.44 3.31-1.44 6-2v-2c10.4-3.49 23-5.73 33 0z" fill="#0093FA"/>
<path transform="translate(814 692)" d="m0 0c6.93 5.03 10.7 12.5 12.4 20.7 0.46 6.45 0.319 12.1-0.75 18.5l-57 1c-3.3-9.9-4.23-18-3.5-28.4 0.146-2.11 0.281-4.22 0.406-6.34 0.0651-0.921 0.13-1.84 0.197-2.79-0.112-2.69-0.725-4.21-2.1-6.5 0.892-0.0606 1.78-0.121 2.7-0.184 1.76-0.126 1.76-0.126 3.55-0.254 1.16-0.0812 2.32-0.162 3.52-0.246 3.06-0.218 3.06-0.218 5.29-0.836 10.9-2.69 25.6-0.187 35.3 5.3z" fill="#1C0AFB"/>
<path transform="translate(614,466)" d="m0 0c0.688 1.81 0.688 1.81 1 4-0.487 0.374-0.975 0.748-1.48 1.13-2.42 2.97-1.75 6.29-1.59 9.93 0.143 5.85-0.0212 11.1-1.5 16.9-0.505 2.4-0.506 4.63-0.438 7.08h-2c0.281 1.98 0.575 3.96 0.875 5.94 0.162 1.1 0.325 2.2 0.492 3.34 0.209 0.898 0.418 1.8 0.633 2.72l2 1c0.286 0.624 0.572 1.25 0.867 1.89 1.38 2.58 2.75 3.4 5.26 4.86 0.724 0.428 1.45 0.856 2.2 1.3 0.831 0.472 0.831 0.472 1.68 0.953l-1 2c-1.81 0.439-1.81 0.439-4.16 0.711-0.859 0.111-1.72 0.222-2.6 0.336-1.8 0.215-3.59 0.426-5.39 0.633-5.45 0.712-9.93 1.95-14.9 4.4-1.98 0.912-3.86 1.45-5.99 1.92v2l-4 1v-2h3l-4-2v-2h-3v-3c-0.99-0.33-1.98-0.66-3-1v-2l-4-2 3-2-3-2c-0.293-3.04-0.293-3.04-0.188-6.62 0.0271-1.19 0.0541-2.38 0.082-3.6 0.0522-1.37 0.0522-1.37 0.105-2.77l2-1c-0.327-0.995-0.655-1.99-0.992-3.02-1.13-3.95-1.21-7.62-1.13-11.7 0.018-1.29 0.0361-2.59 0.0547-3.92 0.0232-1.1 0.0464-2.2 0.0703-3.33 0-2.84-0.403-5.24-1-8l4-1v-3h2v-2l-5 1v-2c8.84-2.54 17.5-4.39 26.7-5.31 0.849-0.0881 1.7-0.176 2.57-0.267 4.12-0.374 7.7-0.564 11.7 0.58z" fill="#01D1FC"/>
<path transform="translate(1106 885)" d="m0 0c0.941 7.55e-5 1.88 1.51e-4 2.85 2.29e-4 1.02 0.00516 2.04 0.0103 3.08 0.0156 1.56 0.00212 1.56 0.00212 3.15 0.00429 3.33 0.00561 6.66 0.0182 10 0.0309 2.26 0.00501 4.51 0.00958 6.77 0.0137 5.54 0.011 11.1 0.0278 16.6 0.0488 1.35 2.71 1.07 5.01 1 8-0.782 0.0251-1.56 0.0501-2.37 0.0759-3.52 0.116-7.04 0.238-10.6 0.362-1.23 0.0393-2.46 0.0786-3.73 0.119-1.75 0.0628-1.75 0.0628-3.54 0.127-1.63 0.055-1.63 0.055-3.28 0.111-2.44-0.071-2.44-0.071-3.5 1.21-0.0986 1.4-0.131 2.81-0.133 4.22-0.00129 0.849-0.00258 1.7-0.00391 2.57 0.0058 1.34 0.0058 1.34 0.0117 2.71-0.00387 0.893-0.00773 1.79-0.0117 2.71 0.00193 1.27 0.00193 1.27 0.00391 2.57 0.00113 0.784 0.00226 1.57 0.00342 2.38-0.0717 1.86-0.0717 1.86 1.13 2.84 1.49 0.157 2.98 0.251 4.47 0.316 0.899 0.0419 1.8 0.0838 2.72 0.127 0.946 0.0393 1.89 0.0786 2.87 0.119 1.42 0.0648 1.42 0.0648 2.88 0.131 2.35 0.106 4.71 0.208 7.06 0.307 2 5.75 2 5.75 2 8-0.992 0.0376-0.992 0.0376-2 0.0759-2.98 0.116-5.96 0.238-8.93 0.362-1.04 0.0393-2.08 0.0786-3.15 0.119-0.989 0.0419-1.98 0.0838-3 0.127-1.37 0.055-1.37 0.055-2.78 0.111-2.12-0.0246-2.12-0.0246-3.13 1.21-0.0876 2-0.107 4-0.0977 6 0.00483 1.82 0.00483 1.82 0.00977 3.68 0.00838 1.28 0.0168 2.56 0.0254 3.88 0.00451 1.28 0.00902 2.57 0.0137 3.89 0.0118 3.18 0.0283 6.37 0.0488 9.55 3.72 0.863 7.14 1.12 11 1.1 1.11-0.00322 2.22-0.00645 3.37-0.00977 1.73-0.0126 1.73-0.0126 3.49-0.0254 1.75-0.00677 1.75-0.00677 3.54-0.0137 2.88-0.0118 5.76-0.0282 8.64-0.0488v2h2v7c-7.51 0.0506-15 0.0857-22.5 0.11-2.56 0.0101-5.11 0.0237-7.67 0.041-3.67 0.0242-7.34 0.0356-11 0.0444-1.72 0.0155-1.72 0.0155-3.48 0.0313-1.06 1.51e-4 -2.12 3.02e-4 -3.21 4.58e-4 -1.41 0.00666-1.41 0.00666-2.84 0.0135-2.25-0.241-2.25-0.241-4.25-2.24-0.188-2.41-0.252-4.7-0.227-7.11-2.92e-4 -0.732-5.84e-4 -1.46-8.85e-4 -2.22 0.0014-2.42 0.017-4.85 0.0326-7.27 0.00373-1.68 0.00658-3.36 0.00858-5.04 0.00764-4.42 0.0273-8.84 0.0494-13.3 0.0204-4.51 0.0296-9.02 0.0397-13.5 0.0215-8.85 0.0556-17.7 0.0977-26.6 2.4-1.2 3.87-1.12 6.54-1.11z" fill="#1D0AFC"/>
<path transform="translate(852 885)" d="m0 0 2.31 0.688-0.0625 2.75c-0.0682 3.05-0.0682 3.05 0.562 5.16 0.56 2.34 0.602 4.37 0.57 6.78-0.0104 0.925-0.0208 1.85-0.0316 2.8-0.0176 0.995-0.0352 1.99-0.0534 3.01-0.0247 1.55-0.0247 1.55-0.05 3.13-0.0375 2.19-0.078 4.38-0.121 6.57-0.0623 3.32-0.104 6.64-0.145 9.96-0.0391 2.13-0.0794 4.27-0.121 6.4-0.00953 0.981-0.0191 1.96-0.0289 2.97-0.167 6.86-1.44 12.9-3.52 19.5-0.639 0.103-1.28 0.206-1.94 0.312l-2.06 0.688-1 3c-7.95 5.75-17.6 5.27-27 5-1.16-0.0206-2.31-0.0412-3.5-0.0625-7.16-1.92-14.7-6.49-18.5-12.9-2.01-8.2-2.27-16.4-2.2-24.8 0.00283-1.16 0.00566-2.32 0.00858-3.51 0.0111-3.66 0.0362-7.31 0.0617-11 0.01-2.5 0.0192-5 0.0273-7.5 0.0219-6.08 0.0553-12.2 0.0977-18.3 3.46-0.0579 6.92-0.0936 10.4-0.125 0.985-0.0168 1.97-0.0335 2.98-0.0508 1.41-0.00967 1.41-0.00967 2.85-0.0195 1.3-0.0157 1.3-0.0157 2.63-0.0317 2.15 0.227 2.15 0.227 4.15 2.23 0.234 2.24 0.234 2.24 0.211 5.07-0.00338 1.06-0.00676 2.12-0.0102 3.21-0.0135 1.15-0.0269 2.3-0.0408 3.48-0.0052 1.18-0.0104 2.36-0.0158 3.57-0.0179 3.78-0.049 7.57-0.0819 11.4-0.0277 3.77-0.0524 7.53-0.0712 11.3-0.0122 2.35-0.0298 4.69-0.0533 7.04-0.04 6.58-0.0351 12.7 2.06 19 5.12 2.49 9.47 3.18 15.1 2.81 1.05-0.0554 2.11-0.111 3.2-0.168 2.77-0.352 2.77-0.352 3.92-2.45 0.375-1.09 0.375-1.09 0.758-2.2 0.337-0.535 0.674-1.07 1.02-1.62 1.43-3.47 1.34-6.93 1.39-10.6 0.0194-0.815 0.0387-1.63 0.0587-2.47 0.0596-2.61 0.106-5.23 0.152-7.84 0.0382-1.7 0.0773-3.4 0.117-5.1 0.152-6.92 0.302-13.8 0.175-20.7-0.0127-0.87-0.0254-1.74-0.0385-2.64-0.0277-1.66-0.0681-3.32-0.123-4.97-0.086-5.48-0.086-5.48 1.59-8.03 1.66-0.955 1.66-0.955 4.35-0.642z" fill="#0092FA"/>
<path transform="translate(636,886)" d="m0 0c6.96-0.0253 13.9-0.0428 20.9-0.0549 2.37-0.00504 4.74-0.0119 7.11-0.0205 3.4-0.0121 6.8-0.0178 10.2-0.0222 1.07-0.00516 2.13-0.0103 3.23-0.0156 1.47-1.13e-4 1.47-1.13e-4 2.97-2.29e-4 0.868-0.00222 1.74-0.00444 2.63-0.00673 1.98 0.12 1.98 0.12 2.98 1.12v6l-27 1c0.0393 4.67 0.0393 4.67 0.0901 9.33 0.0168 4-0.314 7.74-1.09 11.7h2v2l2-1c2.64-0.125 5.24-0.185 7.88-0.188 0.721-0.0122 1.44-0.0245 2.18-0.0371 3.81-0.0105 6.72 0.0888 9.94 2.22v6c-7.26 0.33-14.5 0.66-22 1-1.35 2.7-1.13 4.83-1.13 7.85-0.00129 1.16-0.00258 2.32-0.00391 3.52 0.0058 1.83 0.0058 1.83 0.0117 3.69-0.00387 1.22-0.00773 2.45-0.0117 3.71 0.00193 1.74 0.00193 1.74 0.00391 3.52 0.00113 1.07 0.00226 2.14 0.00342 3.25-0.15 2.41-0.15 2.41 1.13 3.47 2.12 0.146 4.25 0.227 6.37 0.281 1.94 0.0561 1.94 0.0561 3.93 0.113 1.38 0.0357 2.76 0.0708 4.14 0.105 2.69 0.0676 5.37 0.141 8.06 0.219 1.8 0.0454 1.8 0.0454 3.63 0.0918 2.87 0.189 2.87 0.189 4.87 1.19v7c-7.51 0.0506-15 0.0857-22.5 0.11-2.56 0.0101-5.11 0.0237-7.67 0.041-3.67 0.0242-7.34 0.0356-11 0.0444-1.72 0.0155-1.72 0.0155-3.48 0.0313-1.06 1.51e-4 -2.12 3.02e-4 -3.21 4.58e-4 -1.41 0.00666-1.41 0.00666-2.84 0.0135-2.25-0.241-2.25-0.241-4.25-2.24-0.211-2.21-0.211-2.21-0.16-4.94 0.011-0.977 0.0219-1.95 0.0332-2.96 0.0213-1.02 0.0425-2.05 0.0645-3.1 0.0344-2.02 0.0645-4.04 0.0898-6.06 0.018-0.898 0.0359-1.8 0.0544-2.72 0.0697-2.26 0.0697-2.26-1.08-4.21-0.095-1.56-0.128-3.13-0.129-4.69-0.00315-0.974-0.0063-1.95-0.00955-2.95 0.00202-1.06 0.00405-2.11 0.00613-3.2-9.57e-4 -1.08-0.00191-2.16-0.0029-3.27-6.81e-4 -2.29 0.00117-4.57 0.00534-6.86 0.00535-3.51 5.35e-5 -7.02-0.00635-10.5 6.61e-4 -2.22 0.00194-4.43 0.00391-6.65-0.00304-1.58-0.00304-1.58-0.00613-3.2 0.00315-0.974 0.0063-1.95 0.00955-2.95 7.96e-4 -0.86 0.00159-1.72 0.00241-2.61 0.127-2.09 0.127-2.09 1.13-4.09z" fill="#00B5FA"/>
<path transform="translate(655,619)" d="m0 0c6.28-0.0763 12.6-0.129 18.8-0.165 2.13-0.015 4.27-0.0355 6.4-0.0615 3.08-0.0366 6.15-0.0534 9.23-0.0667 0.948-0.0155 1.9-0.031 2.87-0.0469 5.66-0.00142 9.69 0.545 14.7 3.34 2.29 3.43 2.18 4.32 1.91 8.3-0.062 1.05-0.124 2.1-0.188 3.19-0.108 1.67-0.108 1.67-0.219 3.38-0.43 7.98-0.735 15.4 1.03 23.2 0.693 4.31 0.554 8.59 0.473 12.9-5.38 0.0494-10.8 0.0857-16.1 0.11-1.83 0.0101-3.66 0.0237-5.49 0.041-2.63 0.0242-5.25 0.0356-7.88 0.0444-1.23 0.0155-1.23 0.0155-2.49 0.0313-2.01 3.99e-4 -4.02-0.104-6.02-0.227l-2-2v-3l-1.88-1.81c-4.15-4.27-4.22-8.6-4.19-14.3 0.0296-1.01 0.0593-2.03 0.0898-3.07-0.0244-2.5-0.425-4.41-1.03-6.8l1-2c0.266-5.72 0.229-11.2-3-16l1-1-8-1 1-3z" fill="#0B6EFC"/>
<path transform="translate(1e3 886)" d="m0 0c3.29-0.029 6.58-0.0468 9.88-0.0625 0.937-0.00838 1.87-0.0168 2.84-0.0254 1.34-0.00483 1.34-0.00483 2.71-0.00977 1.24-0.00786 1.24-0.00786 2.51-0.0159 2.06 0.114 2.06 0.114 4.06 1.11-0.00333 1.04-0.00333 1.04-0.00673 2.1-0.0201 6.56-0.0353 13.1-0.0451 19.7-0.00519 3.37-0.0122 6.74-0.0236 10.1-0.0122 3.89-0.0178 7.77-0.0222 11.7-0.00516 1.2-0.0103 2.39-0.0156 3.62-4.42e-4 6.67 0.282 13.2 1.11 19.8 3.65 0.841 7 1.12 10.7 1.1 1.07-0.00322 2.13-0.00645 3.23-0.00977 1.1-0.00838 2.21-0.0168 3.34-0.0254 1.68-0.00677 1.68-0.00677 3.4-0.0137 2.76-0.0118 5.52-0.0282 8.29-0.0488v2l2 1c-2.2 2.98-3.59 4.72-7.3 5.46-2.88 0.151-5.73 0.153-8.62 0.0979-1.58-0.0035-1.58-0.0035-3.19-0.00706-2.22-0.00973-4.44-0.0315-6.66-0.0645-3.41-0.0495-6.82-0.0615-10.2-0.0671-2.16-0.0141-4.32-0.0303-6.47-0.0488-1.02-0.00536-2.05-0.0107-3.1-0.0163-0.945-0.016-1.89-0.032-2.86-0.0484-0.833-0.0106-1.67-0.0213-2.52-0.0322-2.03-0.274-2.03-0.274-4.03-2.27-0.247-3-0.247-3-0.243-6.9-0.0019-0.709-0.0038-1.42-0.00575-2.15-0.00371-2.35 7e-3 -4.7 0.0182-7.05 0.00119-1.63 0.00164-3.26 0.00139-4.89 0.00157-3.42 0.00986-6.83 0.0233-10.2 0.017-4.39 0.0208-8.77 0.0201-13.2 2.72e-4 -3.36 0.00575-6.73 0.013-10.1 0.00319-1.62 0.00515-3.23 0.00589-4.85 0.00216-2.26 0.0109-4.52 0.0216-6.77 0.00381-1.29 0.00762-2.57 0.0116-3.9 0.134-3 0.134-3 1.13-5z" fill="#1648FC"/>
<path transform="translate(764,687)" d="m0 0c2.23 2.32 2.97 4.21 3.09 7.42-0.134 2.99-0.353 5.97-0.594 8.95-0.67 10.6 0.17 19.3 3.04 29.5 0.468 2.11 0.593 3.98 0.605 6.14 0.00638 0.788 0.0128 1.58 0.0193 2.39 0.00111 0.842 0.00223 1.68 0.00337 2.55 0.00333 0.873 0.00666 1.75 0.0101 2.64 0.00506 1.84 0.00741 3.68 0.00725 5.53 0.00219 2.82 0.0204 5.64 0.0393 8.45 0.00293 1.79 0.00492 3.58 0.00586 5.38 0.00719 0.842 0.0144 1.68 0.0218 2.55-0.00308 0.788-0.00615 1.58-0.00932 2.39 0.00143 0.69 0.00285 1.38 0.00432 2.09-0.247 1.97-0.247 1.97-1.29 4-1.31 2.69-0.711 4.78-0.261 7.66 0.566 4.37 0.421 8.76 0.397 13.2-0.00141 1.01-0.00283 2.02-0.00429 3.06-0.00556 3.2-0.0181 6.4-0.0309 9.6-0.00502 2.18-0.00958 4.36-0.0137 6.54-0.011 5.32-0.0282 10.6-0.0488 16h-13l2-2c0.719-2.32 1.39-4.65 2-7h-2c-2.67-7.07-3.21-13.7-3.09-21.2 0.139-9.09-0.0531-18.2-0.289-27.2-0.0206-0.812-0.0413-1.62-0.0625-2.46-0.286-10.8-0.92-21.5-2.14-32.2-0.995-9.16-0.261-17.2 1.5-26.2 0.992-5.37 1.38-10.6 1.39-16 0.00516-0.72 0.0103-1.44 0.0156-2.18-0.0496-3.68-0.233-5.3-2.33-8.44 7.62-1 7.62-1 11-1z" fill="#0B6CFC"/>
<path transform="translate(656,464)" d="m0 0c4.81 0.0687 9.61 0.157 14.4 0.262 1.64 0.0333 3.27 0.0613 4.91 0.084 2.35 0.0335 4.7 0.0858 7.04 0.142 0.733 0.00639 1.47 0.0128 2.22 0.0194 2.06 0.06 2.06 0.06 5.41 0.492 2.24 3.36 2.25 4.47 2.24 8.4 0.00461 1.66 0.00461 1.66 0.00932 3.35-0.00719 1.19-0.0144 2.39-0.0218 3.62-4.58e-4 1.23-9.16e-4 2.45-0.00139 3.72-0.00302 2.6-0.0109 5.19-0.0233 7.79-0.0182 3.97-0.0205 7.95-0.0203 11.9-0.00492 2.52-0.0107 5.04-0.0176 7.57-0.00111 1.19-0.00223 2.38-0.00337 3.61-0.00638 1.11-0.0128 2.22-0.0193 3.37-0.00572 1.46-0.00572 1.46-0.0116 2.95-0.134 2.71-0.134 2.71-1.13 7.71h-23l2-1c-0.313-3.92-0.573-6.42-2.94-9.62-3.66-5.99-4.24-13.5-4.06-20.4 0-3.08-0.515-4.32-2-6.94-1.33-4.41-0.621-7.69 0.438-12.1 1.18-4.89 1.18-4.89 1.56-9.88l-8-2 1-3z" fill="#0B6EFD"/>
<path transform="translate(836,465)" d="m0 0h22l1 2c2.33 0.374 4.66 0.708 7 1 2.53 2.53 1.19 9.48 1.19 12.9 0.0122 1.12 0.0245 2.23 0.0371 3.38 0.00193 1.07 0.00387 2.14 0.00586 3.24 0.00411 0.983 0.00822 1.97 0.0125 2.98-0.243 2.53-0.243 2.53-2.24 5.53-0.251 2.57-0.38 4.99-0.375 7.56 1.61e-4 0.715 3.22e-4 1.43 4.88e-4 2.17 0.149 6.96 2.2 12.3 5.51 18.3 0.867 1.92 0.867 1.92 0.867 4.92h-25c-3-6-3-6-3-8h-2c-1.46-2.65-2-3.89-2-7l-2-1c-2.41-4.32-2.09-8.36-1.69-13.1 0.0483-0.715 0.0967-1.43 0.146-2.17 0.228-3.09 0.558-5.76 1.54-8.71h3l-0.562-2.94c-0.557-3.8-0.214-7.26 0.309-11 0.316-2.17 0.316-2.17 0.254-5.02-1.31-1.03-2.65-2.03-4-3v-2z" fill="#0092FB"/>
<path transform="translate(516,886)" d="m0 0c3.29-0.029 6.58-0.0468 9.88-0.0625 0.937-0.00838 1.87-0.0168 2.84-0.0254 1.34-0.00483 1.34-0.00483 2.71-0.00977 1.24-0.00786 1.24-0.00786 2.51-0.0159 2.06 0.114 2.06 0.114 4.06 1.11 0.0231 9.76 0.0409 19.5 0.0518 29.3 0.00523 4.53 0.0123 9.06 0.0236 13.6 0.0108 4.37 0.0168 8.74 0.0194 13.1 0.00185 1.67 0.00547 3.34 0.0109 5.01 0.00721 2.33 0.00826 4.66 0.0078 7 0.0036 0.698 0.00719 1.4 0.0109 2.11-0.0104 4.77-0.0104 4.77-1.12 5.88-1.49 0.0867-2.98 0.107-4.47 0.0977-0.899-0.00322-1.8-0.00645-2.72-0.00977-1.42-0.0126-1.42-0.0126-2.87-0.0254-0.949-0.00451-1.9-0.00902-2.88-0.0137-2.35-0.0118-4.71-0.0283-7.06-0.0488-8.98-18-2.08-57.4-1-77z" fill="#00EAFD"/>
<path transform="translate(1069 885)" d="m0 0c1.27-0.00193 1.27-0.00193 2.56-0.00391 0.885 0.00387 1.77 0.00773 2.68 0.0117 0.889-0.00387 1.78-0.00773 2.69-0.0117 0.845 0.00129 1.69 0.00258 2.56 0.00391 1.17 0.00169 1.17 0.00169 2.36 0.00342 1.83 0.129 1.83 0.129 2.83 1.13 0.0747 1.43 0.0832 2.86 0.0625 4.3-0.00773 0.877-0.0155 1.75-0.0234 2.66-0.0258 1.85-0.0519 3.7-0.0781 5.55-0.00773 0.882-0.0155 1.76-0.0234 2.67-0.0116 0.805-0.0232 1.61-0.0352 2.44 0.036 2.41 0.036 2.41 0.593 4.84 0.545 2.75 0.634 5.26 0.637 8.06 0.0029 1.61 0.0029 1.61 0.00586 3.26-0.00451 1.15-0.00902 2.29-0.0137 3.48-0.00193 1.18-0.00387 2.36-0.00586 3.58-0.0577 12.1-0.536 24.1-1.12 36.2h-21c-1.47-2.94-1.13-5.89-1.11-9.11-1.46e-4 -0.732-2.92e-4 -1.46-4.43e-4 -2.22 6.98e-4 -2.42 0.00848-4.85 0.0163-7.27 0.00186-1.68 0.00329-3.36 0.00429-5.04 0.00382-4.42 0.0136-8.84 0.0247-13.3 0.0102-4.51 0.0148-9.02 0.0198-13.5 0.0107-8.85 0.0278-17.7 0.0488-26.6 2.33-1.17 3.72-1.13 6.32-1.13z" fill="#1C0CFC"/>
<path transform="translate(639 464)" d="m0 0c1.4 0.0725 1.4 0.0725 2.83 0.146 0.968 0.0561 1.94 0.112 2.93 0.17 1.48 0.0783 1.48 0.0783 2.98 0.158 2.42 0.129 4.85 0.264 7.27 0.404v2c0.566 0.11 1.13 0.219 1.71 0.332 1.1 0.238 1.1 0.238 2.22 0.48 1.1 0.226 1.1 0.226 2.21 0.457 0.61 0.241 1.22 0.482 1.85 0.73 1.28 3.85 0.441 5.84-0.562 9.75-1.3 5.72-1.71 8.9 0.562 14.2 0.977 3.95 1.16 7.76 1.31 11.8 0.387 6.04 1.19 11.7 5.69 16.2 0.0409 2.33 0.0424 4.67 0 7-2.5 1.25-4.21 1.11-7.01 1.1-0.986-0.00322-1.97-0.00645-2.99-0.00977-1.03-0.00838-2.07-0.0168-3.13-0.0254-1.56-0.00677-1.56-0.00677-3.15-0.0137-2.57-0.0118-5.15-0.0283-7.72-0.0488l2-1-1.5-1.38c-1.5-1.62-1.5-1.62-1.5-3.62l-2-1c-0.433-0.959-0.433-0.959-0.875-1.94-0.949-2.23-0.949-2.23-3.19-3l-1.94-1.06c-1.11-3.87-1.07-7.56-1-11.6 0.152-4.24 0.152-4.24-0.555-8.37-0.697-3.23-0.0533-6.34 0.43-9.57 0.137-0.996 0.137-0.996 0.277-2.01 0.372-2.63 0.766-5.19 1.48-7.75 0.607-2.84-0.61-5.1-1.63-7.73-2.97-0.495-2.97-0.495-6-1v-3c3.12-0.937 5.74-1.06 8.98-0.879z" fill="#0093FB"/>
<path transform="translate(983 886)" d="m0 0c6.09 2.15 9.91 6.13 12.9 11.7 0.812 2.81 0.812 2.81 1 6 0.0503 0.776 0.101 1.55 0.152 2.35 0.27 7.14-0.956 12.5-5.9 17.9-8.41 7.75-19.6 6.93-30.2 6.75l1-2-1-2c-2.02-0.652-2.02-0.652-4-1-0.0247-4.52-0.0429-9.04-0.0549-13.6-0.00503-1.54-0.0119-3.08-0.0205-4.62-0.0121-2.21-0.0178-4.42-0.0222-6.63-0.00516-0.69-0.0103-1.38-0.0156-2.09-5.75e-4 -4.88-5.75e-4 -4.88 1.11-7.11h9v-2l-1.83 0.141c-6.61 0.298-6.61 0.298-9.73-2.14-0.712-0.99-0.712-0.99-1.44-2 7.18-3.59 21.5-1.59 29.1 0.316z" fill="#1549FC"/>
<path transform="translate(638 619)" d="m0 0c0.974 6.45e-4 1.95 0.00129 2.95 0.00195 1.02 0.0161 2.03 0.0322 3.08 0.0488 1.53-0.00483 1.53-0.00483 3.09-0.00977 7.58 0.0553 7.58 0.0553 9.85 2.32 2.32 0.4 4.66 0.74 7 1l-2 3 2 2c0.449 2.9 0.449 2.9 0.688 6.38 0.0864 1.14 0.173 2.28 0.262 3.46 0.0438 2.73-0.24 4.58-0.949 7.16 0.309 2.34 0.645 4.67 1 7v7c0.292 2.01 0.612 4.01 1 6 0.99 0.33 1.98 0.66 3 1 3 5.22 3 5.22 3 8-3.75 0.0581-7.5 0.0936-11.2 0.125-1.06 0.0168-2.13 0.0335-3.22 0.0508-1.02 0.00645-2.05 0.0129-3.11 0.0195-1.41 0.0157-1.41 0.0157-2.86 0.0317-6.02-0.533-9.08-4.49-12.9-8.84-2.21-3.1-2.63-5.61-2.7-9.39l-1-3c0.265-1.89 0.532-3.78 0.805-5.67 0.433-5.16-0.169-10.4-1.8-15.3 0.938-3.19 0.938-3.19 2-6l-2-1 1-2h-5c2.48-3.09 4.14-3.38 8.04-3.36z" fill="#0093FB"/>
<path transform="translate(605,618)" d="m0 0c3.93 0.0936 7.87 0.2 11.8 0.317 1.99 0.0571 3.99 0.104 5.99 0.151 1.25 0.0387 2.51 0.0773 3.8 0.117 1.16 0.0314 2.31 0.0628 3.51 0.0952 2.91 0.319 2.91 0.319 5.91 2.32 0 4 0 4-0.562 7.38-0.44 3.65-0.126 6.04 0.562 9.62 0.23 1.85 0.436 3.71 0.625 5.56 0.0954 0.909 0.191 1.82 0.289 2.75 0.0875 2.73-0.362 5.02-0.914 7.68l1 1 0.188 3.12c1.04 4.95 3.15 7.5 6.81 10.9 2.71 1.83 2.71 1.83 5 3v1c-3.93 0.0495-7.87 0.0858-11.8 0.11-2 0.015-3.99 0.0404-5.99 0.0659-1.25 0.00645-2.51 0.0129-3.8 0.0195-1.16 0.0105-2.31 0.0209-3.51 0.0317-4.54-0.354-6.96-2.97-9.91-6.23v-2h-2c-0.475-2.14-0.949-4.28-1.42-6.41-0.38-1.69-0.777-3.37-1.2-5.05-0.189-0.776-0.379-1.55-0.574-2.35-0.179-0.708-0.358-1.42-0.543-2.14-0.303-2.3 0.116-3.83 0.73-6.04-0.316-1.67-0.652-3.34-1-5v-7l-0.562-2.75c-0.438-2.25-0.438-2.25 0.562-5.25-0.99-0.33-1.98-0.66-3-1l2-1-2-3z" fill="#00B5FA"/>
<path transform="translate(751,686)" d="m0 0v2l1.94 0.938c2.06 1.06 2.06 1.06 3.06 2.06 0.553 8.76 0.197 17.2-1.5 25.8-1.61 8.29-2.02 15.8-1.05 24.2 1.62 14 1.95 28 2.11 42.1 0.0443 3.4 0.0911 6.8 0.143 10.2 0.0314 2.09 0.0584 4.19 0.0802 6.28 0.116 8.22 0.723 16.3 2.21 24.4h2c-0.312 3.38-0.312 3.38-1 7-3.64 2.43-5.71 2.16-10 2l-0.438-3.69c-0.391-3.14-0.926-6.21-1.56-9.31-0.951-5.53-1.12-10.8-1.06-16.4 0.00379-0.876 0.00757-1.75 0.0115-2.65 0.0121-2.77 0.0308-5.55 0.051-8.32 0.0265-3.67 0.0465-7.35 0.0625-11 0.0083-0.848 0.0166-1.7 0.0251-2.57 0.00854-2.01-0.0342-4.02-0.0876-6.03l-1-1c-0.114-2.92-0.164-5.81-0.168-8.72-0.00333-0.893-0.00666-1.79-0.0101-2.71-0.00508-1.9-0.00741-3.81-0.00725-5.71-0.00215-2.86-0.0202-5.71-0.0393-8.57-0.0375-12.2 0.199-24.4 3.22-36.3 0.307-6.41 0.147-12.7-1-19l-2.38-0.938c-2.62-1.06-2.62-1.06-4.62-2.06v-2c4.02-0.841 7.02-1.05 11 0z" fill="#0092FA"/>
<path transform="translate(858,465)" d="m0 0c3.54-0.175 7.08-0.281 10.6-0.375 0.999-0.0503 2-0.101 3.03-0.152 8.35-0.166 8.35-0.166 12 3.3 2.05 2.81 2.72 4 3.35 7.23l-2 1c-0.113 5.08-0.113 5.08 1 10l-0.938 3.25c-1.08 3.81-1.14 6.82-1.06 10.8-0.285 1.68-0.6 3.35-1 5h2v6h2c0.363 1.29 0.715 2.58 1.06 3.88 0.296 1.08 0.296 1.08 0.598 2.18 0.34 1.95 0.34 1.95-0.66 3.95l2 1-1 7h-18c-7.35-15.9-7.35-15.9-7.25-25.6-0.00773-0.75-0.0155-1.5-0.0234-2.27 0.0199-5.62 0.0199-5.62 1.28-8.02 1.23-2.58 1.22-4.44 1.19-7.28-0.00645-0.98-0.0129-1.96-0.0195-2.97-0.0168-1.02-0.0335-2.03-0.0508-3.08-0.00902-1.03-0.018-2.06-0.0273-3.12-0.0235-2.54-0.0564-5.08-0.0977-7.62-4.46-0.99-4.46-0.99-9-2l1-2z" fill="#0B6EFD"/>
<path transform="translate(740,686)" d="m0 0v2c0.763 0.268 1.53 0.536 2.31 0.812 4.11 1.81 4.11 1.81 5.69 4.19 1.65 8.55 1.42 16.8-0.467 25.3-1.75 8.8-1.69 17.8-1.66 26.8-0.00387 1.13-0.00773 2.25-0.0117 3.41 0.00193 1.61 0.00193 1.61 0.00391 3.25 0.00113 0.967 0.00226 1.93 0.00342 2.93-0.0253 2.37-0.0253 2.37 1.13 4.35h-2l0.5 2c0.615 3.69 0.5 7.26 0.5 11 0.164 0.716 0.327 1.43 0.496 2.17 0.72 4.05 0.606 8.01 0.566 12.1-0.00379 0.891-0.00757 1.78-0.0115 2.7-0.0163 3.8-0.0445 7.6-0.0715 11.4-0.0181 2.78-0.0302 5.56-0.042 8.34-0.0083 0.855-0.0166 1.71-0.0251 2.59-0.0166 4.04 0.0943 7.74 1.09 11.7 0.636 3.46 1 6.46 1 10h-7c-1.37-4.69-1.37-4.69-2-7-0.335-1.21-0.669-2.42-1.01-3.67-0.994-4-1.3-7.81-1.4-11.9-0.0195-0.712-0.0389-1.42-0.059-2.16-0.0604-2.33-0.107-4.65-0.152-6.98-0.0374-1.64-0.075-3.28-0.113-4.93-1.51-69.8-1.51-69.8 1.74-76.3 0.0714-2.14 0.084-4.29 0.0625-6.44-0.00902-1.15-0.018-2.31-0.0273-3.5-0.0116-1.01-0.0232-2.02-0.0352-3.07 0-3 0-3 0.25-6.19-0.31-4.73-1.94-7.77-4.25-11.8l-1-2c2-1 2-1 6-1z" fill="#00B5FA"/>
<path transform="translate(585,769)" d="m0 0h17v2l2 1c-0.07 0.619-0.14 1.24-0.212 1.88-0.831 8.07-0.971 16.1-0.975 24.2-0.0184 1.95-0.0184 1.95-0.0371 3.93-0.00993 6.53 0.231 12.6 1.8 19 0.685 3.3 0.404 5.85-0.575 9.05-4.6 4.11-10 3.34-15.8 3.19-0.979-0.0135-1.96-0.0271-2.97-0.041-2.41-0.0352-4.81-0.0845-7.22-0.146v-3l8 1c-0.106-0.926-0.106-0.926-0.214-1.87-0.844-8.14-0.935-16.2-0.911-24.4-0.00357-1.34-0.00748-2.67-0.0117-4.01 0.00129-1.28 0.00258-2.56 0.00391-3.88 0.00113-1.15 0.00226-2.3 0.00342-3.49 0.135-3.52 0.596-6.9 1.13-10.4 0.0852-1.92 0.13-3.83 0.125-5.75 0.00258-0.923 0.00516-1.85 0.00781-2.8-0.0318-2.59-0.0318-2.59-1.13-5.45z" fill="#0B6EFD"/>
<path transform="translate(541,769)" d="m0 0c2.77-0.0539 5.54-0.0936 8.31-0.125 0.786-0.0168 1.57-0.0335 2.38-0.0508 0.757-0.00645 1.51-0.0129 2.29-0.0195 0.696-0.0105 1.39-0.0209 2.11-0.0317 1.9 0.227 1.9 0.227 4.9 2.23h-2l1.12 3.62c0.907 2.92 0.967 4.12-0.0889 7.05-1.76 5.66-1.41 11.5-1.41 17.4-0.00436 2.24-0.0407 4.48-0.0786 6.71-0.0541 7.04 0.0169 13.2 3.53 19.6 1.18 2.14 1.48 4.29 1.92 6.68l2 1h-17l-1-4c-1.59-1.51-1.59-1.51-3.5-2.81-2.74-2.25-3.42-2.9-4.44-6.44l-0.0625-3.75c-0.0361-0.718-0.0722-1.44-0.109-2.18-0.165-5.05 0.365-9.78 1.17-14.8 0.878-5.57 0.903-10.5 0.129-16.1-0.0632-0.664-0.126-1.33-0.191-2.01l1-1c0.0982-1.48 0.13-2.96 0.125-4.44 0.00258-0.803 0.00516-1.61 0.00781-2.43 0.00297-2.18 0.00297-2.18-1.13-4.13z" fill="#02D2FD"/>
<path transform="translate(679,619)" d="m0 0c3.35-0.0879 6.71-0.141 10.1-0.188 0.943-0.0251 1.89-0.0503 2.86-0.0762 5.82-0.0609 9.98 0.358 15.1 3.26 2.29 3.43 2.18 4.32 1.91 8.3-0.062 1.05-0.124 2.1-0.188 3.19-0.0721 1.12-0.144 2.23-0.219 3.38-0.437 8.11-0.59 15.5 1.02 23.4 0.762 4.25 0.609 8.37 0.48 12.7h-16c-0.195-3.09-0.391-6.18-0.586-9.28-0.137-0.898-0.273-1.8-0.414-2.72l-2-1c-0.414-2.07-0.414-2.07-0.625-4.69-0.0735-0.898-0.147-1.8-0.223-2.72-0.169-2.87-0.228-5.72-0.152-8.59l-6-3 0.5-2.31c0.762-4.1 0.427-7.64-0.5-11.7-1.4-1.65-1.4-1.65-3-3-2-3.58-2-3.58-2-5z" fill="#1649FD"/>
<path transform="translate(571,769)" d="m0 0c5.78-0.236 10.5 0.132 16 2 0.0278 1.77 0.0467 3.54 0.0625 5.31 0.0116 0.986 0.0232 1.97 0.0352 2.99-0.0756 2.86-0.288 5.58-0.598 8.42-0.814 8.47-0.606 17-0.562 25.5 0.00503 1.73 0.00959 3.46 0.0137 5.2 0.0109 4.21 0.0281 8.41 0.0488 12.6h-8c-1.08-2.32-2.07-4.62-3-7-0.286-0.718-0.572-1.44-0.867-2.18-4.62-13.8-2.57-29.8-0.133-43.8 0-3.3-1.68-6.02-3-9z" fill="#0093FA"/>
<path transform="translate(946,908)" d="m0 0c0.619 0.784 1.24 1.57 1.88 2.38 2.02 2.59 2.02 2.59 4.12 4.62h3c-0.75 5.75-0.75 5.75-3 8l-5-2 2 3 2-1c0.663 2.82 0.996 5.22 0.938 8.12-0.19 3.08-0.19 3.08 2.06 5.88 0.716 2.54 1.19 4.31 0.496 6.88-0.56 2.4-0.43 4.19-0.121 6.62 0.0902 0.753 0.18 1.51 0.273 2.28 0.335 2.12 0.797 4.15 1.35 6.22l2-2c0.0427 1.67 0.0406 3.33 0 5-2.3 2.3-7.85 1.19-10.9 1.19-0.933 0.0122-1.87 0.0245-2.83 0.0371-0.891 0.00193-1.78 0.00387-2.7 0.00586-0.821 0.00411-1.64 0.00822-2.49 0.0125-2.05-0.243-2.05-0.243-4.05-2.24-0.227-2.43-0.227-2.43-0.195-5.45 0.00645-1.08 0.0129-2.15 0.0195-3.26 0.0168-1.13 0.0335-2.26 0.0508-3.42 0.00902-1.14 0.018-2.27 0.0273-3.44 0.0236-2.81 0.0566-5.62 0.0977-8.43 0.99-0.33 1.98-0.66 3-1l1 13 2-2c-0.319-2.11-0.319-2.11-1-4l3-2c-0.351-0.866-0.701-1.73-1.06-2.62-1.01-3.62-0.798-5.76 0.0625-9.38h2v-20l2-1z" fill="#1549FD"/>
<path transform="translate(852 885)" d="m0 0 2.31 0.688-0.0625 2.75c-0.0682 3.05-0.0682 3.05 0.562 5.16 0.56 2.34 0.602 4.37 0.57 6.78-0.0104 0.925-0.0208 1.85-0.0316 2.8-0.0176 0.995-0.0352 1.99-0.0534 3.01-0.0165 1.03-0.033 2.07-0.05 3.13-0.0375 2.19-0.078 4.38-0.121 6.57-0.0623 3.32-0.104 6.64-0.145 9.96-0.0391 2.13-0.0794 4.27-0.121 6.4-0.00953 0.981-0.0191 1.96-0.0289 2.97-0.167 6.86-1.44 12.9-3.52 19.5-0.639 0.103-1.28 0.206-1.94 0.312l-2.06 0.688-1 3c-2.07 1.17-2.07 1.17-4.56 2.19-1.24 0.516-1.24 0.516-2.5 1.04-0.638 0.254-1.28 0.508-1.93 0.77v-3c-2.97-0.66-5.94-1.32-9-2v-3c0.915-0.0258 1.83-0.0516 2.77-0.0781 1.19-0.0567 2.38-0.113 3.6-0.172 1.18-0.0464 2.37-0.0928 3.59-0.141 3.1-0.262 3.1-0.262 4.33-2.41 0.235-0.727 0.469-1.45 0.711-2.2 0.336-0.535 0.672-1.07 1.02-1.62 1.43-3.47 1.34-6.93 1.4-10.6 0.0194-0.815 0.0387-1.63 0.0587-2.47 0.0596-2.61 0.106-5.23 0.152-7.84 0.0382-1.7 0.0773-3.4 0.117-5.1 0.152-6.92 0.302-13.8 0.175-20.7-0.0127-0.87-0.0254-1.74-0.0385-2.64-0.0277-1.66-0.0681-3.32-0.123-4.97-0.086-5.48-0.086-5.48 1.59-8.03 1.66-0.955 1.66-0.955 4.35-0.642z" fill="#0092FB"/>
<path transform="translate(399 892)" d="m0 0c4.27 0.395 6.49 0.743 9.95 3.46 4.83 6.29 4.78 11.9 4.06 19.7-0.806 3.44-1.46 4.28-4 7-3.31 1.31-6.44 2.01-10 2-1.35-0.628-2.69-1.29-4-2-0.0494-3.95-0.0857-7.9-0.11-11.9-0.015-2.01-0.0404-4.01-0.0659-6.02-0.00967-1.89-0.00967-1.89-0.0195-3.81-0.0105-1.16-0.0209-2.33-0.0317-3.52 0.264-3.25 0.771-4.69 4.22-4.95z" fill="#000103"/>
<path transform="translate(958,892)" d="m0 0c4.61-0.318 7.13-0.429 11.3 1.62 3.85 3.41 5.41 5.98 6 11.1 0.269 6.89-0.59 11.4-4.32 17.2-2.49 1.24-4.23 1.13-7 1.12-0.887 0.00258-1.77 0.00516-2.69 0.00781-2.31-0.133-2.31-0.133-4.31-1.13-0.0247-3.95-0.0429-7.9-0.0549-11.9-0.00751-2.01-0.0202-4.01-0.033-6.02-0.00322-1.26-0.00645-2.51-0.00977-3.81-0.00524-1.16-0.0105-2.33-0.0159-3.52 0.114-2.8 0.114-2.8 1.11-4.8z" fill="#000002"/>
<path transform="translate(594,769)" d="m0 0h8v2l2 1c-0.07 0.619-0.14 1.24-0.212 1.88-0.831 8.07-0.971 16.1-0.975 24.2-0.0184 1.95-0.0184 1.95-0.0371 3.93-0.00993 6.53 0.231 12.6 1.8 19 0.685 3.3 0.404 5.85-0.575 9.05-4.6 4.11-10 3.34-15.8 3.19-0.979-0.0135-1.96-0.0271-2.97-0.041-2.41-0.0352-4.81-0.0845-7.22-0.146v-3c6.36-0.202 11.9 0.372 18 2-0.166-0.568-0.333-1.14-0.504-1.72-0.512-2.35-0.529-4.32-0.434-6.71 0.0606-3.68-0.526-6.18-2.06-9.56l1-2-0.5-2.88c-0.464-2.9-0.441-4.41 0.5-7.12h2c-0.248-0.785-0.248-0.785-0.5-1.59-0.634-3.06-0.556-5.92-0.5-9.04 0.236-4.35 0.236-4.35-1-8.38h3v-12h-3v-2z" fill="#1549F8"/>
<path transform="translate(897,892)" d="m0 0c4.25 2.08 6.89 4.26 8.53 8.81 1.13 5.22 1.7 11.2-0.359 16.2-1.47 2.25-3.27 4.07-5.17 5.96-2.38 0.414-2.38 0.414-5.12 0.625-0.91 0.0748-1.82 0.15-2.76 0.227-1.05 0.0735-1.05 0.0735-2.12 0.148-1.44-2.87-1.11-5.34-1.1-8.54 0.00322-1.3 0.00645-2.6 0.00977-3.95 0.00836-1.38 0.0168-2.76 0.0254-4.14 0.00501-1.39 0.00958-2.78 0.0137-4.16 0.0118-3.4 0.0283-6.81 0.0488-10.2 2.87-1.43 4.81-1.31 8-1z" fill="#000002"/>
<path transform="translate(474,892)" d="m0 0c3.35 1.37 4.72 2.61 6.81 5.56 1.91 5.53 2.25 10.9-0.0625 16.4-4.22 4.98-7.39 5.53-13.8 6.06v-2h-2v-25c3.06-1.53 5.62-1.23 9-1z" fill="#000509"/>
<path transform="translate(764,687)" d="m0 0c2.23 2.32 2.97 4.21 3.09 7.42-0.134 2.99-0.353 5.97-0.594 8.95-0.67 10.6 0.157 19.3 3.04 29.5 0.471 2.14 0.578 4.02 0.571 6.21-7.55e-5 0.801-1.51e-4 1.6-2.29e-4 2.43-0.00516 0.854-0.0103 1.71-0.0156 2.59-0.00141 0.882-0.00283 1.76-0.00429 2.67-0.00559 2.81-0.0181 5.62-0.0309 8.44-0.00502 1.91-0.00958 3.82-0.0137 5.73-0.011 4.67-0.0283 9.35-0.0488 14l-3 1 0.0625-3.88c0-5.18-0.226-10.3-0.5-15.5-0.0392-0.785-0.0785-1.57-0.119-2.38-0.199-3.55-0.571-6.82-1.44-10.2-0.221-2.41-0.406-4.83-0.562-7.25-0.0838-1.26-0.168-2.53-0.254-3.83-0.0606-0.964-0.121-1.93-0.184-2.92h-2c-2.38-4.67-2.27-8.89-2.19-14 5e-3 -0.84 0.00999-1.68 0.0151-2.55 0.065-5.97 0.445-11.9 1.15-17.8 0.0265-3.01-0.691-4.96-1.98-7.66 2-1 2-1 5-1z" fill="#1648FC"/>
<path transform="translate(849,911)" d="m0 0c1.05 9.69 1.1 19.3 1 29l3-2c1.81 6.08-0.163 11.2-2 17-0.639 0.103-1.28 0.206-1.94 0.312l-2.06 0.688-1 3c-2.07 1.17-2.07 1.17-4.56 2.19-0.826 0.344-1.65 0.688-2.5 1.04-0.638 0.254-1.28 0.508-1.93 0.77v-3c-2.97-0.66-5.94-1.32-9-2v-3c0.915-0.0258 1.83-0.0516 2.77-0.0781 1.19-0.0567 2.38-0.113 3.6-0.172 1.18-0.0464 2.37-0.0928 3.59-0.141 3.1-0.262 3.1-0.262 4.33-2.41 0.235-0.727 0.469-1.45 0.711-2.2 0.336-0.544 0.672-1.09 1.02-1.65 1.39-3.34 1.34-6.62 1.4-10.2 0.0194-0.749 0.0387-1.5 0.0587-2.27 0.0596-2.38 0.106-4.77 0.152-7.15 0.0382-1.62 0.0772-3.24 0.117-4.86 0.0959-3.96 0.18-7.93 0.258-11.9 2-1 2-1 3-1z" fill="#0A6EFC"/>
<path transform="translate(1069 885)" d="m0 0c1.27-0.00193 1.27-0.00193 2.56-0.00391 0.885 0.00387 1.77 0.00773 2.68 0.0117 0.889-0.00387 1.78-0.00773 2.69-0.0117 0.845 0.00129 1.69 0.00258 2.56 0.00391 1.17 0.00169 1.17 0.00169 2.36 0.00342 1.83 0.129 1.83 0.129 2.83 1.13 0.0409 2.33 0.0424 4.67 0 7l-2 1c-0.722 1.64-1.39 3.31-2 5h-2l-1 2-1.25-2.44c-1.48-2.7-1.48-2.7-3.94-3.38-0.598-0.0619-1.2-0.124-1.81-0.188l-0.375 3.44-0.625 3.56-2 1c0.0116 0.834 0.0232 1.67 0.0352 2.53 0.0528 6.59-0.15 12.9-1.04 19.5h-1c-0.17-2.94-0.337-5.87-0.5-8.81-0.0484-0.867-0.0968-1.73-0.147-2.63-0.291-5.49-0.414-10.9-0.193-16.4-0.185-2.46-1.01-3.97-2.16-6.13-0.125-2.75-0.125-2.75 0-5 2.33-1.17 3.72-1.13 6.32-1.13z" fill="#1646FC"/>
<path transform="translate(739,936)" d="m0 0 1 18 5 2-4 4c-5.21-1.64-8.5-4.5-11.3-9.19-1.02-4.19-1.39-8.54-0.688-12.8 3.3-2.2 6.23-3.88 10-2z" fill="#00B2FA"/>
<path transform="translate(1077,929)" d="m0 0 2 1v2l2 1c0.625 3.06 0.625 3.06 1 6h3v19l-2-1v-2l-5-1v-2h-2v-6l-2-1 1-5h2v-11z" fill="#1641FC"/>
<path transform="translate(852 885)" d="m0 0 2.31 0.688-0.0625 2.75c-0.092 3.05-0.092 3.05 0.625 5.06 0.6 3 0.0536 5.44-0.5 8.44-0.195 1.08-0.389 2.16-0.59 3.27-0.234 1.23-0.234 1.23-0.473 2.48-0.99-1.32-1.98-2.64-3-4l-2 4-2-1c-0.0871-3.1-0.14-6.21-0.188-9.31-0.0251-0.881-0.0503-1.76-0.0762-2.67-0.00967-0.848-0.0193-1.7-0.0293-2.57-0.0157-0.78-0.0314-1.56-0.0476-2.36 0.618-3.78 2.26-5.21 6.03-4.77z" fill="#0A6FFC"/>
<path transform="translate(598,904)" d="m0 0h2c2.48 3.73 2.42 6.69 2 11-1 3.5-1 3.5-2 6h-2v5h-3l-0.875-2.94c-0.767-3.17-0.767-3.17-3.12-4.06 0.715-4.76 1.8-9.34 3-14h2l-1 4c2.22-1.93 2.22-1.93 3-5z" fill="#01C8FC"/>
<path transform="translate(915,667)" d="m0 0h39v3h-39v-3z" fill="#030F77"/>
<path transform="translate(552,901)" d="m0 0h1v36h-3c-0.0494-4.81-0.0857-9.61-0.11-14.4-0.0101-1.64-0.0237-3.27-0.041-4.91-0.0242-2.35-0.0356-4.7-0.0444-7.04-0.0155-1.1-0.0155-1.1-0.0313-2.22-4.01e-4 -1.81 0.104-3.61 0.227-5.41l2-2z" fill="#00B5FA"/>
<path transform="translate(1069 885)" d="m0 0c1.28 0.00483 1.28 0.00483 2.58 0.00977 0.889 0.00838 1.78 0.0168 2.7 0.0254 0.897 0.00451 1.79 0.00902 2.72 0.0137 2.22 0.0118 4.44 0.0283 6.66 0.0488l1 3c-1.42 0.481-2.83 0.96-4.25 1.44-0.789 0.267-1.58 0.534-2.39 0.809-4.45 1.42-4.45 1.42-6.36 1.75-1.56-1.44-1.56-1.44-3-3h-3l-1 2h-2v-5c2.35-1.17 3.74-1.12 6.35-1.1z" fill="#1C0BFC"/>
<path transform="translate(751,685)" d="m0 0h25l1 3h-26v-3z" fill="#04167D"/>
<path transform="translate(779,896)" d="m0 0c0.99 0.33 1.98 0.66 3 1l1 10c-6.05 0.977-6.05 0.977-8 1-2-2-2-2-2.12-5.12l0.125-2.88c2.97 0.495 2.97 0.495 6 1v-5z" fill="#00B2FA"/>
<path transform="translate(598,904)" d="m0 0h2c2.48 3.73 2.42 6.69 2 11-1 3.5-1 3.5-2 6h-1v-5h-2v-5h-3v-6h2l-1 4c2.22-1.93 2.22-1.93 3-5z" fill="#00ACF6"/>
<path transform="translate(956,934)" d="m0 0c0.99 0.33 1.98 0.66 3 1v22h-2c-1.23-2.45-1.11-4.05-1.1-6.79 0.00322-0.941 0.00645-1.88 0.00977-2.85 0.00838-0.985 0.0168-1.97 0.0254-2.98 0.00451-0.993 0.00902-1.99 0.0137-3.01 0.0118-2.46 0.0283-4.91 0.0488-7.37z" fill="#051B72"/>
<path transform="translate(662,916)" d="m0 0h16l1 3c-6.33 0.904-11.7 0.904-18 0l1-3z" fill="#0094FA"/>
<path transform="translate(767,755)" d="m0 0h2l1 20c-0.99 0.33-1.98 0.66-3 1v-21z" fill="#123ED8"/>
<path transform="translate(550,937)" d="m0 0c2 2 2 2 2.14 3.97-0.0524 0.786-0.105 1.57-0.159 2.38l-0.156 2.58c-0.0645 0.889-0.129 1.78-0.195 2.7-0.0567 0.897-0.113 1.79-0.172 2.72-0.142 2.22-0.293 4.44-0.453 6.66h-2c-0.0289-3.31-0.0468-6.62-0.0625-9.94-0.00838-0.946-0.0168-1.89-0.0254-2.87-0.00322-0.899-0.00645-1.8-0.00977-2.72-0.00524-0.833-0.0105-1.67-0.0159-2.52 0.114-1.95 0.114-1.95 1.11-2.95z" fill="#09576C"/>
<path transform="translate(956,940)" d="m0 0 1 20c-2.78-2.78-2.54-5.15-3-9l-0.562-2.62c-0.462-2.51-0.51-4.83-0.438-7.38 2-1 2-1 3-1z" fill="#0B6EFD"/>
<path transform="translate(1066,901)" d="m0 0c2 2 2 2 2.23 4.72-0.0836 6.5-0.357 12.8-1.23 19.3h-1c-0.195-3.06-0.382-6.12-0.562-9.19-0.0561-0.864-0.112-1.73-0.17-2.62-0.244-4.24-0.425-8.05 0.732-12.2z" fill="#1649FD"/>
<path transform="translate(784,794)" d="m0 0v13c-0.99-0.33-1.98-0.66-3-1v-11c2-1 2-1 3-1z" fill="#031076"/>
<path transform="translate(1078,920)" d="m0 0h2v2c0.99 0.33 1.98 0.66 3 1h-2l-1 7c-1.56-1.62-1.56-1.62-3-4 0.312-3.25 0.312-3.25 1-6z" fill="#1644FC"/>
</svg>
